<?xml version="1.0" standalone="no"?>
<!DOCTYPE svg PUBLIC "-//W3C//DTD SVG 1.1//EN" "http://www.w3.org/Graphics/SVG/1.1/DTD/svg11.dtd" >
<svg xmlns="http://www.w3.org/2000/svg" xmlns:xlink="http://www.w3.org/1999/xlink" version="1.1">
<metadata>
Created by FontForge 20170731 at Mon Oct 25 15:57:50 2021
 By Aleksey,,,
Copyright (c) 2017 by Plau. All rights reserved.
</metadata>
<defs>
<font id="VinilaExtended-Regular" horiz-adv-x="0" >
  <font-face 
    font-family="Vinila Extended"
    font-weight="400"
    font-stretch="expanded"
    units-per-em="2048"
    panose-1="0 0 5 5 0 0 0 0 0 0"
    ascent="1622"
    descent="-426"
    x-height="1034"
    cap-height="1413"
    bbox="-971 -508 2984 1952"
    underline-thickness="102"
    underline-position="-307"
    unicode-range="U+000D-FB02"
  />
<missing-glyph horiz-adv-x="1587" 
d="M195 -358v1996h1198v-1996h-1198zM805 766l391 733h-805l391 -733v-6h23v6zM739 641l-405 752v-1506zM848 641l405 -754v1506zM782 510l-391 -729h805l-391 729v4h-23v-4z" />
    <glyph glyph-name="fi" unicode="fi" horiz-adv-x="1511" 
d="M272 1034v86q0 192 97 285.5t303 93.5q138 0 241 -33v-178q-98 31 -184 31q-109 0 -161 -51.5t-52 -159.5v-74h375v-160h-375v-874h-244v874h-213v160h213zM1096 1210v265h262v-265h-262zM1350 0h-244v1034h244v-1034z" />
    <glyph glyph-name="fl" unicode="fl" horiz-adv-x="1564" 
d="M272 1034v86q0 192 97 285.5t303 93.5q138 0 241 -33v-178q-98 31 -184 31q-109 0 -161 -51.5t-52 -159.5v-74h375v-160h-375v-874h-244v874h-213v160h213zM1133 0v1475h241v-1475h-241z" />
    <glyph glyph-name=".notdef" horiz-adv-x="1587" 
d="M195 -358v1996h1198v-1996h-1198zM805 766l391 733h-805l391 -733v-6h23v6zM739 641l-405 752v-1506zM848 641l405 -754v1506zM782 510l-391 -729h805l-391 729v4h-23v-4z" />
    <glyph glyph-name=".null" 
 />
    <glyph glyph-name="nonmarkingreturn" horiz-adv-x="682" 
 />
    <glyph glyph-name="CR" unicode="&#xd;" horiz-adv-x="1228" 
 />
    <glyph glyph-name="space" unicode=" " horiz-adv-x="591" 
 />
    <glyph glyph-name="exclam" unicode="!" horiz-adv-x="604" 
d="M377 461h-144l-45 373v591h234v-591zM424 0h-248v285h250z" />
    <glyph glyph-name="quotedbl" unicode="&#x22;" horiz-adv-x="897" 
d="M332 891h-144l-30 344v178h204v-178zM709 891h-142l-32 344v178h206v-178z" />
    <glyph glyph-name="numbersign" unicode="#" horiz-adv-x="1802" 
d="M1630 1069v-147h-319v-392h319v-147h-319v-383h-168v383h-492v-383h-168v383h-309v147h309v392h-309v147h309v344h168v-344h492v344h168v-344h319zM651 530h492v392h-492v-392z" />
    <glyph glyph-name="dollar" unicode="$" horiz-adv-x="1617" 
d="M1491 449q0 -174 -152 -279.5t-430 -122.5l4 -260h-192l4 258q-529 21 -602 375h260q80 -215 428 -215q187 0 298.5 56.5t111.5 154.5q0 80 -69 125t-222 65l-373 51q-403 53 -403 326q0 166 149.5 267.5t421.5 113.5l-4 266h192l-4 -268q475 -34 543 -361h-260
q-71 203 -401 203q-173 0 -274 -52t-101 -140q0 -126 231 -156l371 -51q245 -32 359 -119t114 -237z" />
    <glyph glyph-name="percent" unicode="%" horiz-adv-x="1822" 
d="M76 1067q0 167 102 272q101 107 268 107q166 0 267 -107q102 -105 102 -272q0 -166 -102 -274q-102 -105 -267 -105q-166 0 -268 105t-102 274zM565 0h-164v53q-13 173 111 359q26 42 92 108q81 85 107 109q116 108 137 127q219 200 307 319q92 127 92 273v65h166v-53
q0 -110 -26 -194.5t-91 -172.5q-58 -76 -133 -151t-196 -185q-214 -190 -308 -315t-94 -276v-66zM446 834q97 0 155 62.5t58 170.5q0 106 -58 169.5t-155 63.5q-98 0 -157.5 -63.5t-59.5 -169.5t59.5 -169.5t157.5 -63.5zM1378 -18q-167 0 -268 104q-102 105 -102 274
q0 165 102 273q100 106 268 106q167 0 267 -106q102 -105 102 -273t-101.5 -273t-267.5 -105zM1591 358q0 109 -57.5 171.5t-155.5 62.5t-156.5 -63t-58.5 -169t58.5 -169.5t156.5 -63.5t155.5 62.5t57.5 168.5z" />
    <glyph glyph-name="ampersand" unicode="&#x26;" horiz-adv-x="2066" 
d="M1952 817v-180h-486v-256q0 -217 238 -217q99 0 217 31v-181q-124 -37 -266 -37q-259 0 -336 158l27 109h-29q-62 -126 -212.5 -196.5t-369.5 -70.5q-287 0 -450.5 111.5t-163.5 306.5q0 149 102 241.5t291 115.5v30l-90 -10q-123 23 -191.5 96t-68.5 183q0 176 174 280
q174 107 475 107q571 0 660 -408h-267q-23 106 -125.5 165.5t-267.5 59.5q-179 0 -280 -60t-101 -163q0 -99 89.5 -157t258.5 -58h1172zM1214 457v180h-432q-381 0 -381 -221q0 -115 104.5 -185.5t285.5 -70.5q192 0 307.5 79.5t115.5 217.5z" />
    <glyph glyph-name="quotesingle" unicode="'" horiz-adv-x="520" 
d="M332 891h-144l-30 344v178h204v-178z" />
    <glyph glyph-name="parenleft" unicode="(" horiz-adv-x="806" 
d="M768 -190v-148q-312 0 -467.5 227t-155.5 648t155.5 648.5t467.5 227.5v-147q-426 -9 -426 -729q0 -718 426 -727z" />
    <glyph glyph-name="parenright" unicode=")" horiz-adv-x="806" 
d="M39 1266v147q312 0 467.5 -227t155.5 -647q0 -421 -155.5 -649t-467.5 -228v148q426 9 426 729q0 718 -426 727z" />
    <glyph glyph-name="asterisk" unicode="*" horiz-adv-x="1009" 
d="M350 598l-20 -29l-162 115l18 27l176 198l56 31l-4 18l-64 -8l-260 56l-33 8l64 194l31 -10l243 -106l47 -43l17 12l-27 53l-26 266v33h198v-33l-26 -266l-27 -53l14 -12l47 43l246 106l29 10l65 -194l-34 -8l-259 -56l-63 8l-6 -18l57 -31l176 -198l19 -27l-162 -115
l-21 29l-133 229l-12 60h-20l-11 -60z" />
    <glyph glyph-name="plus" unicode="+" horiz-adv-x="1458" 
d="M815 655h463v-166h-463v-366h-174v366h-461v166h461v367h174v-367z" />
    <glyph glyph-name="comma" unicode="," horiz-adv-x="583" 
d="M166 0v285h248v-213q0 -110 -53 -202.5t-150 -145.5h-133v32q151 93 192 244h-104z" />
    <glyph glyph-name="hyphen" unicode="-" horiz-adv-x="1032" 
d="M856 430h-680v195h680v-195z" />
    <glyph glyph-name="period" unicode="." horiz-adv-x="602" 
d="M424 0h-248v285h250z" />
    <glyph glyph-name="slash" unicode="/" horiz-adv-x="745" 
d="M199 -205h-150v17l496 1601h151v-16z" />
    <glyph glyph-name="zero" unicode="0" horiz-adv-x="1679" 
d="M842 1438q315 0 510 -201q196 -199 196 -530t-194 -531q-195 -201 -512 -201q-316 0 -514 201q-197 203 -197 531t197 528q197 203 514 203zM842 166q213 0 330.5 143t117.5 400q0 255 -119 395q-116 143 -329 143q-215 0 -334 -143t-119 -399q0 -255 120.5 -397
t332.5 -142z" />
    <glyph glyph-name="one" unicode="1" horiz-adv-x="1679" 
d="M1038 1413v-1223h523v-190h-1393v190h616v758h-596v189h478q72 0 102 29.5t41 105.5l14 141h215z" />
    <glyph glyph-name="two" unicode="2" horiz-adv-x="1679" 
d="M1495 0h-1345l-3 158l811 534q143 94 199.5 159.5t56.5 154.5q0 113 -102.5 186.5t-263.5 73.5q-376 0 -440 -289h-273q42 227 227 344t494 117q270 0 444 -119q177 -118 177 -295q0 -132 -74 -221q-66 -83 -238 -207l-532 -352l-123 -58v-20l137 24h848v-190z" />
    <glyph glyph-name="three" unicode="3" horiz-adv-x="1679" 
d="M1124 782v-26q196 -26 300 -116.5t104 -236.5q0 -197 -180.5 -311.5t-501.5 -114.5q-301 0 -485.5 110.5t-227.5 318.5h291q70 -240 420 -240q186 0 289.5 68.5t103.5 183.5q0 215 -379 215h-242v188h244q172 0 260 56t88 153q0 101 -99 161t-269 60q-330 0 -406 -223
h-280q121 410 694 410q295 0 466 -102.5t171 -276.5q0 -110 -70.5 -186t-195.5 -99z" />
    <glyph glyph-name="four" unicode="4" horiz-adv-x="1679" 
d="M1360 502h203v-195h-203v-307h-230v307h-1011v178l878 930h258v-35l-761 -809l-93 -65v-19l103 15h626v284l80 99h150v-383z" />
    <glyph glyph-name="five" unicode="5" horiz-adv-x="1679" 
d="M510 850h356q318 0 485 -110t167 -310q0 -213 -183 -334q-180 -119 -467 -119q-294 0 -471.5 101t-224.5 297h258q94 -234 432 -234q164 0 277 78q112 78 112 209q0 124 -109.5 194t-310.5 70h-593v37l59 686h1145v-186h-934l-31 -332l-43 -37v-18z" />
    <glyph glyph-name="six" unicode="6" horiz-adv-x="1679" 
d="M940 901q266 0 430 -108q166 -108 166 -322q0 -225 -186 -356q-186 -133 -494 -133q-188 0 -344 59.5t-242 169.5q-129 167 -129 469q0 362 187.5 560t545.5 198q254 0 424.5 -102.5t221.5 -288.5h-267q-35 98 -135 154t-241 56q-455 0 -467 -475l-41 -69l-15 -74h23
q56 119 202.5 190.5t360.5 71.5zM856 160q205 0 323.5 83.5t118.5 221.5q0 128 -115.5 198t-314.5 70q-210 0 -328 -76.5t-118 -210.5q0 -126 123 -206q124 -80 311 -80z" />
    <glyph glyph-name="seven" unicode="7" horiz-adv-x="1679" 
d="M549 0h-268v39l893 1118l65 49v23l-96 -8h-975v194h1348v-172z" />
    <glyph glyph-name="eight" unicode="8" horiz-adv-x="1679" 
d="M1120 786v-30q199 -31 303.5 -130.5t104.5 -238.5q0 -189 -179.5 -300.5t-512.5 -111.5q-325 0 -504.5 108.5t-179.5 291.5q0 114 76 200.5t221 122.5l94 -10v29q-163 30 -254.5 118.5t-91.5 211.5q0 164 159 278q162 113 484 113q298 0 467.5 -102.5t169.5 -270.5
q0 -103 -72 -180.5t-195 -106.5zM444 1036q0 -96 101 -157.5t286 -61.5q186 0 289 61.5t103 157.5q0 101 -102.5 163.5t-286.5 62.5t-287 -62.5t-103 -163.5zM836 156q197 0 309 66t112 181q0 117 -111.5 188t-309.5 71q-200 0 -313 -71t-113 -188q0 -115 114 -181t312 -66z
" />
    <glyph glyph-name="nine" unicode="9" horiz-adv-x="1679" 
d="M1405 1208q129 -166 129 -469q0 -362 -187.5 -559.5t-545.5 -197.5q-254 0 -424 102.5t-221 288.5h266q35 -98 136.5 -154.5t242.5 -56.5q453 0 465 475l41 70l14 73h-21q-56 -119 -202.5 -190.5t-360.5 -71.5q-266 0 -434 109q-164 108 -164 321q0 225 185 357
q189 133 495 133q188 0 344 -59.5t242 -170.5zM807 686q212 0 329 76.5t117 210.5q0 127 -123 207q-124 80 -311 80q-202 0 -321 -84t-119 -222q0 -128 116 -198t312 -70z" />
    <glyph glyph-name="colon" unicode=":" horiz-adv-x="602" 
d="M424 664h-248v284h250zM424 0h-248v285h250z" />
    <glyph glyph-name="semicolon" unicode=";" horiz-adv-x="583" 
d="M164 948h250l-2 -284h-248v284zM270 0h-104v285h248v-213q0 -110 -53 -202.5t-150 -145.5h-133v32q151 93 192 244z" />
    <glyph glyph-name="less" unicode="&#x3c;" horiz-adv-x="1261" 
d="M1130 117h-34l-975 350v217l975 350h34v-190l-704 -244l-74 -14v-21l70 -12l708 -246v-190z" />
    <glyph glyph-name="equal" unicode="=" horiz-adv-x="1376" 
d="M1196 725h-1016v162h1016v-162zM1196 260h-1016v162h1016v-162z" />
    <glyph glyph-name="greater" unicode="&#x3e;" horiz-adv-x="1261" 
d="M156 115h-35v190l704 244l74 14v21l-70 14l-708 244v190h35l974 -350v-217z" />
    <glyph glyph-name="question" unicode="?" horiz-adv-x="1546" 
d="M897 444h-215q0 141 45 209q47 75 168 138l98 47q93 45 135.5 92t42.5 108q0 100 -99.5 162t-268.5 62q-337 0 -408 -238h-272q114 414 690 414q285 0 455 -105q168 -101 168 -278q0 -103 -65 -179t-210 -149l-112 -55q-87 -43 -119.5 -92t-32.5 -136zM913 0h-247v285
h247v-285z" />
    <glyph glyph-name="at" unicode="@" horiz-adv-x="1929" 
d="M1401 76q-102 0 -162.5 51.5t-60.5 136.5l18 90h-29q-34 -127 -122 -203.5t-220 -76.5q-136 0 -219.5 99t-83.5 265q0 241 140 387q139 148 362 148q194 0 340 -90l-45 -521q-12 -143 117 -143q100 0 170 129q71 133 71 322q0 256 -172.5 398t-476.5 142
q-353 0 -565 -209q-210 -207 -213 -555q1 -293 183 -455.5t499 -162.5q325 0 524 172h184q-102 -144 -291.5 -219.5t-428.5 -75.5q-364 0 -588 199q-223 198 -223 542q0 398 256 648q258 249 675 249q365 0 570 -190q209 -191 209 -481q0 -250 -119 -424
q-120 -172 -299 -172zM891 242q103 0 172.5 101.5t87.5 309.5l12 129q-58 37 -151 37q-122 0 -203.5 -98.5t-81.5 -261.5q0 -101 43.5 -159t120.5 -58z" />
    <glyph glyph-name="A" unicode="A" horiz-adv-x="1712" 
d="M668 1413h376l611 -1380v-33h-248l-127 291h-852l-125 -291h-246v31zM811 1178l-303 -701h690l-307 701l-19 73h-41z" />
    <glyph glyph-name="B" unicode="B" horiz-adv-x="1593" 
d="M1100 774v-24q370 -34 370 -344q0 -192 -144.5 -299t-418.5 -107h-712v1411l739 2q248 0 376 -88t128 -254q0 -117 -66.5 -194t-189.5 -107zM1190 1032q0 215 -309 215h-445v-436h445q309 0 309 221zM436 170h447q188 0 273 58.5t85 181.5q0 245 -358 245h-447v-485z" />
    <glyph glyph-name="C" unicode="C" horiz-adv-x="1804" 
d="M934 -25q-373 0 -584 199q-213 201 -213 531q0 332 215 532q216 201 582 201q302 0 498 -138q196 -136 243 -374h-274q-44 142 -170.5 223.5t-302.5 81.5q-233 0 -379 -146q-141 -144 -141 -380q0 -238 143 -381q145 -142 379 -142q176 0 302.5 81.5t170.5 223.5h272
q-45 -239 -240 -375.5t-501 -136.5z" />
    <glyph glyph-name="D" unicode="D" horiz-adv-x="1787" 
d="M195 1413h673q375 0 580 -186t205 -520t-205 -520.5t-580 -186.5h-673v1413zM449 197h411q248 0 387 136.5t139 373.5t-139 374.5t-387 137.5h-411v-1022z" />
    <glyph glyph-name="E" unicode="E" horiz-adv-x="1470" 
d="M434 631v-438h932v-193h-1171v1413h1161v-192h-922v-398h780v-192h-780z" />
    <glyph glyph-name="F" unicode="F" horiz-adv-x="1443" 
d="M1366 1413v-203h-917v-495h786v-195h-786v-520h-254v1411z" />
    <glyph glyph-name="G" unicode="G" horiz-adv-x="1841" 
d="M1419 571h-526v162h778v-733h-190v166l28 123h-34q-153 -314 -576 -314q-347 0 -555 199q-207 201 -207 531q0 332 215 532q216 201 582 201q298 0 493 -133q195 -131 248 -357h-266q-44 136 -171.5 215.5t-303.5 79.5q-241 0 -385 -147q-143 -146 -143 -391t145 -390
q148 -145 391 -145q207 0 332.5 109t144.5 292z" />
    <glyph glyph-name="H" unicode="H" horiz-adv-x="1761" 
d="M1313 805v608h254v-1413h-254v602h-864v-602h-254v1413h254v-608h864z" />
    <glyph glyph-name="I" unicode="I" horiz-adv-x="659" 
d="M457 0h-254v1413h254v-1413z" />
    <glyph glyph-name="J" unicode="J" horiz-adv-x="1124" 
d="M135 1210v203h795v-946q0 -251 -119.5 -371.5t-378.5 -120.5q-168 0 -313 45v228q131 -49 268 -49q153 0 221 68.5t68 226.5v716h-541z" />
    <glyph glyph-name="K" unicode="K" horiz-adv-x="1609" 
d="M1239 1413h313v-35l-829 -678l829 -667v-33h-313l-741 586l-19 37h-30v-623h-254v1413h254v-637h30l19 35z" />
    <glyph glyph-name="L" unicode="L" horiz-adv-x="1355" 
d="M449 1413v-1194h856v-219h-1110v1413h254z" />
    <glyph glyph-name="M" unicode="M" horiz-adv-x="2154" 
d="M426 0h-231v1413h403l446 -1063l17 -82h43l18 82l447 1063h391v-1413h-227l8 1079v84h-43l-17 -76l-464 -1087h-277l-463 1087l-18 76h-41v-84z" />
    <glyph glyph-name="N" unicode="N" horiz-adv-x="1800" 
d="M424 0h-229v1413h270l833 -1005l43 -95h45l-10 103v997h230v-1413h-271l-833 1006l-43 94h-45l10 -103v-997z" />
    <glyph glyph-name="O" unicode="O" horiz-adv-x="1861" 
d="M934 -25q-373 0 -584 199q-213 201 -213 531q0 332 215 532q216 201 582 201q364 0 577 -201t213 -532q0 -332 -211 -531t-579 -199zM934 174q248 0 385 143q139 145 139 390t-141 389q-139 145 -383 145q-243 0 -387 -147q-144 -144 -144 -389q0 -244 144 -388
q143 -143 387 -143z" />
    <glyph glyph-name="P" unicode="P" horiz-adv-x="1564" 
d="M195 1413h653q314 0 471.5 -131t157.5 -379q0 -246 -157 -377.5t-472 -132.5l-399 -2v-391h-254v1413zM449 578h368q393 0 393 323q0 328 -393 328h-368v-651z" />
    <glyph glyph-name="Q" unicode="Q" horiz-adv-x="1845" 
d="M1069 31v-37l193 14h387v-198h-33l-420 8q-470 9 -735 194q-153 105 -238.5 273t-85.5 379q0 358 211 563q212 209 576 209q360 0 571 -199q213 -198 213 -522q0 -304 -168 -484q-167 -179 -471 -200zM403 688q0 -250 142 -401q142 -148 381 -148q242 0 377 150
q137 149 137 401q0 253 -137 402t-379 149q-239 0 -381 -151q-140 -152 -140 -402z" />
    <glyph glyph-name="R" unicode="R" horiz-adv-x="1634" 
d="M1470 311v-155q0 -97 33 -123v-33h-260q-39 39 -39 129v160q0 145 -67 208.5t-232 63.5l-456 -2v-559h-254v1413h774q256 0 387 -98.5t131 -280.5q0 -118 -72 -212t-186 -120l-84 7v-27q166 -18 245.5 -104.5t79.5 -266.5zM449 737h434q161 0 249.5 69t88.5 177
q0 248 -338 248h-434v-494z" />
    <glyph glyph-name="S" unicode="S" horiz-adv-x="1601" 
d="M815 -18q-612 0 -692 411h260q77 -246 446 -246q179 0 285.5 66t106.5 180q0 181 -285 225l-363 52q-409 62 -409 358q0 191 166.5 300.5t470.5 109.5q279 0 446.5 -102t204.5 -296h-260q-70 234 -399 234q-170 0 -268.5 -60t-98.5 -161q0 -147 236 -181l364 -55
q241 -38 353 -133t112 -260q0 -205 -179 -323.5t-497 -118.5z" />
    <glyph glyph-name="T" unicode="T" horiz-adv-x="1466" 
d="M68 1413h1331v-203h-543v-1210h-244v1210h-544v203z" />
    <glyph glyph-name="U" unicode="U" horiz-adv-x="1761" 
d="M881 -25q-328 0 -507 183t-179 526v729h256v-743q0 -236 110.5 -355.5t321.5 -119.5t322.5 119.5t111.5 355.5v743h252v-729q0 -343 -178.5 -526t-509.5 -183z" />
    <glyph glyph-name="V" unicode="V" horiz-adv-x="1675" 
d="M1026 0h-375l-594 1380v33h262l486 -1145l16 -73h41l17 73l483 1145h256v-31z" />
    <glyph glyph-name="W" unicode="W" horiz-adv-x="2521" 
d="M854 0h-328l-469 1380v33h248l365 -1065l14 -78h43l12 78l365 1065h317l363 -1065l12 -78h45l12 78l367 1065h244v-31l-469 -1382h-340l-365 1061l-14 76h-43l-12 -76z" />
    <glyph glyph-name="X" unicode="X" horiz-adv-x="1652" 
d="M1581 1384l-537 -671l551 -680v-33h-284l-445 549l-24 51h-37l-23 -51l-442 -549h-283v31l553 682l-536 669v31h278l434 -539l25 -49h35l22 49l437 539h276v-29z" />
    <glyph glyph-name="Y" unicode="Y" horiz-adv-x="1626" 
d="M1317 1413h252v-31l-627 -862v-520h-256v520l-629 860v33h260l455 -604l27 -74h37l26 74z" />
    <glyph glyph-name="Z" unicode="Z" horiz-adv-x="1456" 
d="M1352 0h-1268v174l856 969l86 49v31l-117 -21h-819v211h1253v-186l-854 -959l-86 -49v-29l117 21h832v-211z" />
    <glyph glyph-name="bracketleft" unicode="[" horiz-adv-x="815" 
d="M754 1413v-147h-373v-1456h373v-148h-559v1751h559z" />
    <glyph glyph-name="backslash" unicode="\" horiz-adv-x="745" 
d="M696 -205h-149l-498 1602v16h152l495 -1601v-17z" />
    <glyph glyph-name="bracketright" unicode="]" horiz-adv-x="815" 
d="M61 1413h560v-1751h-560v148h373v1456h-373v147z" />
    <glyph glyph-name="asciicircum" unicode="^" horiz-adv-x="1253" 
d="M268 573h-202v29l444 811h215l446 -811v-29h-210l-318 592l-12 52h-33l-12 -52z" />
    <glyph glyph-name="underscore" unicode="_" horiz-adv-x="952" 
d="M952 -373h-952v195h952v-195z" />
    <glyph glyph-name="grave" unicode="`" horiz-adv-x="724" 
d="M621 1159h-179l-350 291v25h238l291 -289v-27z" />
    <glyph glyph-name="a" unicode="a" horiz-adv-x="1372" 
d="M670 1059q557 0 557 -412v-647h-201v113l16 92h-26q-65 -105 -193 -167.5t-307 -62.5q-200 0 -312 77t-112 212q0 133 105 208t344 95l444 37v58q0 120 -82.5 182.5t-236.5 62.5q-301 0 -310 -215h-241q4 176 149.5 271.5t405.5 95.5zM569 131q186 0 299 94
q117 95 117 242v4l-412 -35q-237 -21 -237 -151q0 -74 61.5 -114t171.5 -40z" />
    <glyph glyph-name="b" unicode="b" horiz-adv-x="1478" 
d="M819 1059q243 0 398 -152q153 -150 153 -391q0 -239 -153 -389q-150 -150 -396 -150q-158 0 -277 61.5t-182 164.5h-24l14 -86v-117h-202v1475h243v-502l-41 -70l-14 -74h20q62 106 181 168t280 62zM754 145q164 0 266 105t102 268q0 162 -100 268q-98 107 -268 107
q-164 -1 -264.5 -104t-100.5 -269q0 -170 100 -272.5t265 -102.5z" />
    <glyph glyph-name="c" unicode="c" horiz-adv-x="1423" 
d="M735 -25q-288 0 -459 148q-167 148 -167 395q0 248 167 393q171 148 461 148q242 0 402 -103t192 -280h-244q-37 101 -130 159t-222 58q-177 0 -281 -103t-104 -270q0 -171 104.5 -274t280.5 -103q127 0 219 57t133 160h244q-29 -169 -190 -278q-155 -107 -406 -107z" />
    <glyph glyph-name="d" unicode="d" horiz-adv-x="1474" 
d="M1085 973v502h244v-1475h-203v117l15 86h-23q-64 -103 -183.5 -164.5t-277.5 -61.5q-244 0 -397 150q-151 151 -151 389q0 241 153 391q155 152 397 152q161 0 280 -62t181 -168h21l-15 74zM725 145q163 0 264 102.5t101 272.5q0 168 -103 271q-102 102 -262 102
q-169 0 -270 -107q-99 -108 -99 -268q0 -161 101 -268q102 -105 268 -105z" />
    <glyph glyph-name="e" unicode="e" horiz-adv-x="1415" 
d="M1303 524v-45h-951q11 -159 108 -245.5t267 -86.5q256 0 338 168h225q-48 -158 -198.5 -248t-380.5 -90q-282 0 -443 146q-159 144 -159 387q0 247 163 397q169 152 445 152q272 0 428 -144q158 -143 158 -391zM715 899q-142 0 -236.5 -74.5t-120.5 -208.5h703
q-24 133 -113 208t-233 75z" />
    <glyph glyph-name="f" unicode="f" horiz-adv-x="942" 
d="M729 1319q-109 0 -161 -51.5t-52 -159.5v-74h375v-160h-375v-874h-244v874h-213v160h213v86q0 192 97 285.5t303 93.5q138 0 241 -33v-178q-98 31 -184 31z" />
    <glyph glyph-name="g" unicode="g" horiz-adv-x="1486" 
d="M1120 924v110h221v-901q0 -254 -160.5 -390t-475.5 -136q-263 0 -414 98.5t-176 282.5h245q19 -105 112 -165.5t241 -60.5q355 0 370 332l39 84l15 62h-23q-62 -102 -180.5 -161t-278.5 -59q-252 0 -399 144t-147 377q0 230 147 374q150 144 397 144q159 0 279 -59.5
t182 -159.5h23zM723 170q162 0 262 100q102 102 102 273q0 169 -100.5 268.5t-263.5 99.5q-166 0 -266.5 -103.5t-100.5 -266.5t101 -267t266 -104z" />
    <glyph glyph-name="h" unicode="h" horiz-adv-x="1429" 
d="M821 1059q226 0 344.5 -112t118.5 -324v-621h-242v573q0 308 -294 308q-163 0 -260 -91t-97 -249v-543h-241v1475h241v-506l-41 -66l-16 -65h22q60 101 179 161t286 60z" />
    <glyph glyph-name="i" unicode="i" horiz-adv-x="569" 
d="M416 1210h-262v265h262v-265zM408 0h-244v1034h244v-1034z" />
    <glyph glyph-name="j" unicode="j" horiz-adv-x="610" 
d="M455 1210h-262v265h264zM78 -381q-78 0 -164 21v174q55 -19 119 -19q90 0 130 46t40 145v1048h243v-1034q0 -193 -89.5 -287t-278.5 -94z" />
    <glyph glyph-name="k" unicode="k" horiz-adv-x="1310" 
d="M1255 1006l-591 -461l593 -516v-29h-286l-512 430l-33 51h-35v-481h-241v1475h241v-871h35l33 53l502 377h294v-28z" />
    <glyph glyph-name="l" unicode="l" horiz-adv-x="622" 
d="M432 0h-242v1475h242v-1475z" />
    <glyph glyph-name="m" unicode="m" horiz-adv-x="2101" 
d="M1550 1059q195 0 300.5 -100t105.5 -283v-674h-236v629q0 256 -241 256q-142 0 -225 -79t-83 -218v-588h-235v629q0 256 -248 256q-141 0 -222 -79t-81 -218v-590h-235v1034h190v-110l-14 -84h20q49 102 152.5 160.5t251.5 58.5q276 0 356 -197l-8 -43h20
q53 110 164.5 175t267.5 65z" />
    <glyph glyph-name="n" unicode="n" horiz-adv-x="1429" 
d="M821 1059q226 0 344.5 -112t118.5 -324v-623h-242v575q0 308 -294 308q-163 0 -260 -91t-97 -249v-543h-241v1034h200v-106l-14 -92h20q60 102 178 162.5t287 60.5z" />
    <glyph glyph-name="o" unicode="o" horiz-adv-x="1462" 
d="M735 1059q285 0 453 -148q168 -146 168 -393q0 -246 -166 -393q-165 -148 -455 -148q-288 0 -459 148q-167 145 -167 393t167 393q171 148 459 148zM1118 518q0 172 -102.5 274.5t-280.5 102.5t-283.5 -104t-105.5 -273q0 -171 105.5 -274t283.5 -103q176 0 279.5 104
t103.5 273z" />
    <glyph glyph-name="p" unicode="p" horiz-adv-x="1478" 
d="M821 1057q255 0 402 -150q147 -147 147 -389q0 -244 -149 -393q-150 -150 -402 -150q-161 0 -281.5 63t-179.5 169h-20l14 -74l41 -72v-434h-243v1407h202v-116l-14 -87h24q64 103 182.5 164.5t276.5 61.5zM754 143q169 0 268 105q100 106 100 268q0 161 -102 266
q-101 107 -266 107q-163 0 -264 -102.5t-101 -272.5t100 -270q101 -101 265 -101z" />
    <glyph glyph-name="q" unicode="q" horiz-adv-x="1480" 
d="M1124 920v114h209v-1413h-252v438l43 70l17 76h-21q-62 -106 -182 -168t-281 -62q-240 0 -395 152q-153 150 -153 391q0 236 151 387q155 152 395 152q160 0 279.5 -60.5t181.5 -162.5h25zM727 147q161 0 260.5 100t99.5 269q0 166 -99.5 267.5t-260.5 101.5
q-162 0 -264 -105q-98 -104 -98 -264t98 -264q99 -105 264 -105z" />
    <glyph glyph-name="r" unicode="r" horiz-adv-x="991" 
d="M745 1059q108 0 193 -31v-213q-110 35 -201 35q-165 0 -255.5 -101t-90.5 -284v-465h-241v1034h202v-100l-16 -117h20q46 112 145.5 177t243.5 65z" />
    <glyph glyph-name="s" unicode="s" horiz-adv-x="1327" 
d="M655 -25q-263 1 -394.5 78t-166.5 248h230q67 -178 340 -178q142 0 225.5 45.5t83.5 124.5q0 119 -225 143l-291 37q-162 20 -249 86.5t-87 171.5q0 150 140.5 239t389.5 89q484 0 537 -314h-232q-46 166 -321 166q-136 0 -213.5 -39.5t-77.5 -105.5q0 -94 207 -115
l276 -33q198 -23 295 -93t97 -193q-2 -162 -154 -259.5t-410 -97.5z" />
    <glyph glyph-name="t" unicode="t" horiz-adv-x="1110" 
d="M782 164q99 0 217 31v-181q-130 -37 -290 -37q-408 0 -408 377q2 29 2 125v395h-242v160h240v297h244v-297h446v-160h-446v-387v-106q0 -217 237 -217z" />
    <glyph glyph-name="u" unicode="u" horiz-adv-x="1402" 
d="M1016 494v542h239v-1036h-200v106l16 95h-18q-130 -226 -455 -226q-219 0 -333.5 113.5t-114.5 327.5v620h241v-575q0 -309 281 -309q157 0 250.5 92t93.5 250z" />
    <glyph glyph-name="v" unicode="v" horiz-adv-x="1363" 
d="M831 0h-294l-480 1006v28h238l360 -770l13 -51h34l13 51l360 770h232v-24z" />
    <glyph glyph-name="w" unicode="w" horiz-adv-x="2015" 
d="M711 0h-277l-377 1006v28h230l270 -737l10 -59h35l8 59l271 737h266l268 -737l10 -59h33l10 59l271 737h219v-26l-369 -1008h-286l-271 731l-10 60h-31l-10 -60z" />
    <glyph glyph-name="x" unicode="x" horiz-adv-x="1394" 
d="M1325 1010l-428 -486l440 -495v-29h-264l-348 389l-14 43h-31l-12 -43l-349 -389h-262v27l439 497l-426 484v26h260l340 -377l16 -41h29l16 41l338 377h256v-24z" />
    <glyph glyph-name="y" unicode="y" horiz-adv-x="1363" 
d="M338 -377q-135 0 -236 39v191q113 -46 228 -46q139 0 215 107l37 66l41 16v27h-97l-469 983v28h238l360 -770l13 -51h34l13 51l360 770h232v-24l-514 -1082q-72 -159 -181 -232t-274 -73z" />
    <glyph glyph-name="z" unicode="z" horiz-adv-x="1234" 
d="M1120 0h-1003v152l616 663l66 31v24l-76 -6h-596v170h989v-151l-618 -664l-64 -29v-26l74 8h612v-172z" />
    <glyph glyph-name="braceleft" unicode="{" horiz-adv-x="761" 
d="M373 547v-19q106 -21 106 -145v-504q0 -67 64 -67h104v-150h-170q-100 0 -143 44.5t-43 148.5v514q0 48 -19.5 66t-78.5 18h-89v170h89q59 0 78.5 17t19.5 67v514q0 104 43 148t143 44h170v-149h-104q-64 0 -64 -68v-504q0 -124 -106 -145z" />
    <glyph glyph-name="bar" unicode="|" horiz-adv-x="575" 
d="M381 -276h-186v1751h186v-1751z" />
    <glyph glyph-name="braceright" unicode="}" horiz-adv-x="761" 
d="M567 623h88v-170h-88q-57 0 -77.5 -18t-20.5 -66v-514q0 -106 -41.5 -149.5t-144.5 -43.5h-168v150h102q64 0 64 67v504q0 124 108 145v19q-108 21 -108 145v504q0 68 -64 68h-102v149h168q100 0 143 -44t43 -148v-514q0 -50 19.5 -67t78.5 -17z" />
    <glyph glyph-name="asciitilde" unicode="~" horiz-adv-x="1464" 
d="M985 420q-113 0 -260 72q-143 73 -213 73q-75 0 -118.5 -38t-43.5 -105h-155q-12 132 71.5 218.5t235.5 86.5q111 0 256 -74q145 -71 219 -71q159 0 162 143h153q11 -138 -70.5 -221.5t-236.5 -83.5z" />
    <glyph glyph-name="exclamdown" unicode="&#xa1;" horiz-adv-x="604" 
d="M180 1034h248v-284h-250zM225 573h146l43 -372l2 -580h-234v580z" />
    <glyph glyph-name="cent" unicode="&#xa2;" horiz-adv-x="1423" 
d="M733 145q129 0 222 56t130 155h246q-30 -155 -162.5 -255.5t-341.5 -120.5l7 -207h-193l6 207q-251 21 -395 165q-143 143 -143 365q0 221 143 364q145 145 395 166l-6 207h193l-7 -207q207 -19 341 -118.5t163 -257.5h-246q-37 101 -129.5 158t-222.5 57
q-177 0 -280 -101t-103 -268q0 -165 103.5 -265t279.5 -100z" />
    <glyph glyph-name="sterling" unicode="&#xa3;" horiz-adv-x="1605" 
d="M535 199v-27l114 23h840v-195h-1385v166l140 18q190 27 190 187q0 100 -43 213h-287v159h226q-39 110 -39 222q0 206 158 340q160 133 444 133q253 0 408.5 -120.5t187.5 -342.5h-272q-23 138 -110 209t-224 71q-153 0 -241.5 -84.5t-88.5 -222.5q0 -89 45 -205h547v-159
h-483q32 -95 32 -189q0 -113 -80 -166z" />
    <glyph glyph-name="currency" unicode="&#xa4;" horiz-adv-x="1435" 
d="M1059 449l155 -156l-104 -103l-154 152q-101 -70 -235 -70q-133 0 -242 74l-155 -156l-103 103l158 158q-68 103 -68 233q0 133 68 236l-152 155l103 103l153 -154q104 70 236 70q130 0 233 -68l158 156l102 -103l-155 -157q69 -100 69 -238q0 -134 -67 -235zM719 434
q110 0 176 68.5t66 181.5q0 111 -66 179.5t-176 68.5q-106 0 -173 -69.5t-67 -178.5q0 -113 65.5 -181.5t174.5 -68.5z" />
    <glyph glyph-name="yen" unicode="&#xa5;" horiz-adv-x="1622" 
d="M940 0h-254v246h-567v147h493l95 -20v30l-52 41l-4 125h-532v158h364l107 -25v29l-74 49l-459 600v33h258l455 -604l29 -72h35l28 72l453 604h254v-31l-459 -602l-74 -49v-29l107 25h356v-158h-522l-4 -125l-51 -41v-30l92 20h485v-147h-559v-246z" />
    <glyph glyph-name="brokenbar" unicode="&#xa6;" horiz-adv-x="575" 
d="M381 774h-186v701h186v-701zM381 -276h-186v700h186v-700z" />
    <glyph glyph-name="section" unicode="&#xa7;" horiz-adv-x="1648" 
d="M1247 365v-25q250 -59 250 -266q0 -179 -177 -277t-503 -98q-590 0 -649 344h270q35 -197 393 -197q189 0 296.5 54t107.5 147q0 73 -59 112t-197 52l-410 47q-228 29 -337 109.5t-109 220.5q0 96 62.5 169.5t166.5 106.5l62 -24v26q-238 59 -238 262q0 167 172 269
t477 102q563 0 637 -336h-266q-47 189 -381 189q-183 0 -286 -53.5t-103 -145.5q0 -68 54.5 -105.5t176.5 -50.5l406 -47q245 -29 360 -110t115 -224q0 -93 -63 -168.5t-166 -107.5zM659 438l365 -41q98 21 162.5 74.5t64.5 124.5q0 144 -268 174l-367 39
q-98 -21 -162.5 -74.5t-64.5 -122.5q0 -74 64.5 -114.5t205.5 -59.5z" />
    <glyph glyph-name="dieresis" unicode="&#xa8;" horiz-adv-x="1228" 
d="M328 1161h-170v252h170v-252zM707 1161h-170v252h170v-252z" />
    <glyph glyph-name="copyright" unicode="&#xa9;" horiz-adv-x="1851" 
d="M924 -23q-350 0 -568 203q-219 204 -219 525q0 320 219 524q221 203 570 203q351 0 569 -203q219 -201 219 -524q0 -322 -221 -525q-218 -203 -569 -203zM1573 705q0 269 -178 432q-178 166 -469 166t-469 -166q-178 -163 -178 -432t176 -433q178 -163 469 -163t469 163
q180 165 180 433zM930 311q-206 0 -325.5 106.5t-119.5 287.5q0 180 119.5 286.5t325.5 106.5q175 0 287 -76.5t139 -208.5h-187q-55 150 -239 150q-122 0 -193 -70t-71 -188t71 -188.5t193 -70.5q183 0 239 148h187q-27 -131 -138.5 -207t-287.5 -76z" />
    <glyph glyph-name="ordfeminine" unicode="&#xaa;" horiz-adv-x="1206" 
d="M598 1438q432 0 432 -320v-493h-168v82l15 71h-23q-50 -77 -149 -123.5t-236 -46.5q-155 0 -241.5 58t-86.5 161q0 209 346 236l340 27v43q0 87 -62 133.5t-175 46.5q-105 0 -166 -41.5t-66 -114.5h-204q5 135 120 208t324 73zM537 731q129 0 209.5 67.5t80.5 168.5v24
l-288 -24q-104 -7 -149.5 -35t-45.5 -82q0 -119 193 -119zM1030 362h-876v107h876v-107z" />
    <glyph glyph-name="guillemotleft" unicode="&#xab;" horiz-adv-x="1339" 
d="M657 72h-34l-564 395v141l564 393h34v-172l-360 -264l-53 -22v-13l53 -18l360 -268v-172zM1204 72h-35l-563 395v141l563 393h35v-172l-360 -264l-53 -22v-13l53 -18l360 -268v-172z" />
    <glyph glyph-name="logicalnot" unicode="&#xac;" horiz-adv-x="1462" 
d="M180 711v159h1102v-452h-166v293h-936z" />
    <glyph glyph-name="uni00AD" unicode="&#xad;" horiz-adv-x="1032" 
d="M856 430h-680v195h680v-195z" />
    <glyph glyph-name="registered" unicode="&#xae;" horiz-adv-x="1476" 
d="M1368 922q0 -257 -176 -416q-177 -160 -455 -160t-456 158q-172 159 -172 418t174 417q177 160 456 160q281 0 455 -160q174 -158 174 -417zM356 575q141 -129 381 -129q239 0 383 129q144 132 144 347t-144 344q-140 131 -381 131q-240 0 -383 -131q-141 -129 -141 -344
t141 -347zM1055 741v-47q0 -46 14 -57v-14h-141q-17 17 -17 53v57q0 55 -27 76.5t-100 21.5l-211 -2v-206h-135v604h381q117 0 179.5 -45.5t62.5 -128.5q0 -61 -35 -101.5t-98 -52.5l-41 2v-12q87 -6 127.5 -40.5t40.5 -107.5zM573 1122v-196h213q132 0 132 98t-132 98h-213
z" />
    <glyph glyph-name="overscore" unicode="&#xaf;" horiz-adv-x="1228" 
d="M791 1223h-627v147h627v-147z" />
    <glyph glyph-name="degree" unicode="&#xb0;" horiz-adv-x="1011" 
d="M506 668q-179 0 -291 106q-113 107 -113 279q0 169 113 276q115 109 291 109q177 0 289 -109q112 -106 112 -278q0 -170 -110 -277q-109 -106 -291 -106zM506 815q110 0 176 65t66 171q0 109 -68 174q-65 65 -174 65q-108 0 -176 -65q-66 -66 -66 -172t67 -172t175 -66z
" />
    <glyph glyph-name="plusminus" unicode="&#xb1;" horiz-adv-x="1464" 
d="M803 377h-146v307h-477v145h477v320h146v-320h475v-145h-475v-307zM1282 111h-1098v145h1098v-145z" />
    <glyph glyph-name="uni00B2" unicode="&#xb2;" horiz-adv-x="1239" 
d="M1112 666h-979l2 141l582 373q58 37 86 59q80 64 80 152q0 79 -68 130.5t-176 51.5q-248 0 -289 -201h-227q29 172 163.5 262t362.5 90q208 0 330 -88q123 -88 123 -223q0 -97 -50.5 -166.5t-160.5 -138.5l-354 -240l-70 -32v-25l88 20h557v-165z" />
    <glyph glyph-name="uni00B3" unicode="&#xb3;" horiz-adv-x="1236" 
d="M838 1245v-22q139 -19 213.5 -86.5t74.5 -173.5q0 -144 -132.5 -230t-364.5 -86q-223 0 -357 81.5t-166 238.5h226q52 -172 297 -172q126 0 198 48.5t72 129.5q0 155 -266 155h-170v146h172q119 0 180.5 40t61.5 109q0 70 -67.5 113t-184.5 43q-231 0 -287 -158h-217
q85 303 510 303q217 0 340 -74.5t123 -205.5q0 -79 -49 -133.5t-132 -71.5z" />
    <glyph glyph-name="acute" unicode="&#xb4;" horiz-adv-x="1228" 
d="M338 1159h-180v27l295 289h239v-25z" />
    <glyph glyph-name="uni00B5" unicode="&#xb5;" horiz-adv-x="1402" 
d="M1016 494v542h239v-1036h-200v106l16 95h-24q-111 -226 -404 -226q-149 0 -252 74v-405h-241v1392h241v-575q0 -309 283 -309q156 0 249 91.5t93 250.5z" />
    <glyph glyph-name="paragraph" unicode="&#xb6;" horiz-adv-x="1470" 
d="M868 516h-168q-256 0 -386 116.5t-132 334.5q0 216 130.5 331t387.5 115h168v-897zM776 -301q-168 0 -313 45v227q131 -49 270 -49q153 0 221 68.5t68 226.5v1196h254v-1223q0 -251 -119.5 -371t-380.5 -120z" />
    <glyph glyph-name="middot" unicode="&#xb7;" horiz-adv-x="602" 
d="M424 563h-248v285h250z" />
    <glyph glyph-name="cedilla" unicode="&#xb8;" horiz-adv-x="1228" 
d="M444 -145h66q114 0 172.5 -42.5t58.5 -121.5q0 -94 -81.5 -144.5t-231.5 -50.5q-123 0 -217 23v108q89 -28 215 -28q166 0 166 90q0 73 -129 73h-197v15l180 258h125z" />
    <glyph glyph-name="uni00B9" unicode="&#xb9;" horiz-adv-x="686" 
d="M332 1630l12 72h193v-1036h-222v710h-256v168h160q55 0 78.5 18t34.5 68z" />
    <glyph glyph-name="ordmasculine" unicode="&#xba;" horiz-adv-x="1196" 
d="M598 610q-221 0 -352 113.5t-131 300.5q0 186 131 299q133 115 352 115t347 -112t128 -302q0 -188 -128 -301t-347 -113zM596 1300q-139 0 -217 -74t-78 -202q-3 -125 78 -203q79 -73 217 -73q137 0 213 73q76 76 76 203q0 128 -76.5 202t-212.5 74zM1024 362h-860v107
h860v-107z" />
    <glyph glyph-name="guillemotright" unicode="&#xbb;" horiz-adv-x="1339" 
d="M135 991h33l563 -395v-141l-563 -394h-33v172l359 265l53 22v12l-53 19l-359 268v172zM682 991h35l563 -395v-141l-563 -394h-35v172l360 265l54 22v12l-54 19l-360 268v172z" />
    <glyph glyph-name="onequarter" unicode="&#xbc;" horiz-adv-x="2578" 
d="M537 1415v-1036h-222v711h-256v167h160q55 0 78.5 18t34.5 68l12 72h193zM1569 1413l168 -2v-35l-1037 -1376h-170v37zM2296 379h133v-162h-133v-217h-209v217h-721v145l619 674h225v-30l-555 -586l-64 -37v-21l86 17h410v192l72 84h137v-276z" />
    <glyph glyph-name="onehalf" unicode="&#xbd;" horiz-adv-x="2617" 
d="M537 1415v-1036h-222v711h-256v167h160q55 0 78.5 18t34.5 68l12 72h193zM1569 1413l168 -2v-35l-1039 -1376h-168v37zM1845 145l88 21h557v-166h-979l2 141l582 373q58 37 86 59q80 64 80 152q0 79 -68 130.5t-176 51.5q-247 0 -288 -200h-228q29 172 163.5 262
t363.5 90q207 0 329 -88q123 -89 123 -223q0 -97 -50.5 -167t-160.5 -139l-354 -239l-70 -33v-25z" />
    <glyph glyph-name="threequarters" unicode="&#xbe;" horiz-adv-x="2947" 
d="M1126 676q0 -144 -132.5 -230t-364.5 -86q-223 0 -357 81.5t-166 238.5h226q52 -172 297 -172q126 0 198 48.5t72 129.5q0 156 -266 156h-170v145h172q119 0 180.5 40.5t61.5 109.5q0 70 -67.5 112.5t-184.5 42.5q-231 0 -287 -157h-217q85 303 510 303q216 0 339.5 -75
t123.5 -206q0 -79 -49 -133.5t-132 -71.5l-75 6v-22q139 -19 213.5 -86.5t74.5 -173.5zM1976 1413l168 -2v-35l-1038 -1376h-168v37zM2703 379h133v-162h-133v-217h-209v217h-720v145l618 674h225v-30l-555 -586l-63 -37v-21l86 17h409v192l72 84h137v-276z" />
    <glyph glyph-name="questiondown" unicode="&#xbf;" horiz-adv-x="1546" 
d="M633 1034h248v-282h-250zM649 590h213q0 -140 -45 -211q-45 -72 -166 -133l-98 -49q-93 -45 -135.5 -92.5t-42.5 -108.5q0 -99 99 -160t269 -61q335 0 408 235h272q-114 -411 -690 -411q-285 0 -454 102q-168 101 -168 279q0 104 64.5 180.5t207.5 146.5l113 55
q88 44 120.5 93t32.5 135z" />
    <glyph glyph-name="Agrave" unicode="&#xc0;" horiz-adv-x="1712" 
d="M989 1563v-23h-180l-350 289v24h237zM668 1413h376l611 -1380v-33h-248l-127 291h-852l-125 -291h-246v31zM811 1178l-303 -701h690l-307 701l-19 73h-41z" />
    <glyph glyph-name="Aacute" unicode="&#xc1;" horiz-adv-x="1712" 
d="M1206 1853v-24l-356 -291h-178v27l293 288h241zM668 1413h376l611 -1380v-33h-248l-127 291h-852l-125 -291h-246v31zM811 1178l-303 -701h690l-307 701l-19 73h-41z" />
    <glyph glyph-name="Acircumflex" unicode="&#xc2;" horiz-adv-x="1712" 
d="M842 1737l-17 -29l-159 -168h-162v21l278 301h148l278 -301v-21h-166l-159 168l-17 29h-24zM668 1413h376l611 -1380v-33h-248l-127 291h-852l-125 -291h-246v31zM811 1178l-303 -701h690l-307 701l-19 73h-41z" />
    <glyph glyph-name="Atilde" unicode="&#xc3;" horiz-adv-x="1712" 
d="M614 1550h-114q-12 109 44.5 179.5t166.5 70.5q73 0 155 -55q85 -55 127 -55q43 0 66 29.5t18 76.5h127q11 -111 -41.5 -180.5t-154.5 -69.5q-80 0 -172 56q-86 57 -129 57q-46 0 -70.5 -29.5t-22.5 -79.5zM668 1413h376l611 -1380v-33h-248l-127 291h-852l-125 -291
h-246v31zM811 1178l-303 -701h690l-307 701l-19 73h-41z" />
    <glyph glyph-name="Adieresis" unicode="&#xc4;" horiz-adv-x="1712" 
d="M582 1792h170v-252h-170v252zM961 1792h169v-252h-169v252zM668 1413h376l611 -1380v-33h-248l-127 291h-852l-125 -291h-246v31zM811 1178l-303 -701h690l-307 701l-19 73h-41z" />
    <glyph glyph-name="Aring" unicode="&#xc5;" horiz-adv-x="1712" 
d="M616 1731q0 98 67 159.5t173 61.5q105 0 171.5 -62t66.5 -159q0 -100 -66 -162t-172 -62t-173 62t-67 162zM727 1731q0 -58 35 -93.5t94 -35.5t94 35.5t35 93.5q0 57 -35 93t-94 36t-94 -36t-35 -93zM668 1413h376l611 -1380v-33h-248l-127 291h-852l-125 -291h-246v31z
M811 1178l-303 -701h690l-307 701l-19 73h-41z" />
    <glyph glyph-name="AE" unicode="&#xc6;" horiz-adv-x="2232" 
d="M1337 631v-447h791v-184h-1026v305h-629l-199 -305h-245v35l901 1378h1188v-184h-781v-428h639v-170h-639zM1028 1157l-436 -670h510v742h-45z" />
    <glyph glyph-name="Ccedilla" unicode="&#xc7;" horiz-adv-x="1804" 
d="M930 182q176 0 302.5 81.5t170.5 223.5h272q-43 -231 -228.5 -368t-475.5 -144l-88 -125h65q114 0 173 -42t59 -121q0 -93 -82 -144t-232 -51q-123 0 -217 23v108q92 -29 215 -29q166 0 166 91q0 73 -129 73h-196v15l143 204q-329 24 -522 220q-189 198 -189 508
q0 332 215 532q216 201 582 201q302 0 498 -138q196 -136 243 -374h-274q-44 142 -170.5 223.5t-302.5 81.5q-233 0 -379 -146q-141 -144 -141 -380q0 -238 143 -381q145 -142 379 -142z" />
    <glyph glyph-name="Egrave" unicode="&#xc8;" horiz-adv-x="1470" 
d="M922 1563v-23h-181l-350 289v24h238zM434 631v-438h932v-193h-1171v1413h1161v-192h-922v-398h780v-192h-780z" />
    <glyph glyph-name="Eacute" unicode="&#xc9;" horiz-adv-x="1470" 
d="M1139 1853v-24l-357 -291h-178v27l293 288h242zM434 631v-438h932v-193h-1171v1413h1161v-192h-922v-398h780v-192h-780z" />
    <glyph glyph-name="Ecircumflex" unicode="&#xca;" horiz-adv-x="1470" 
d="M774 1737l-16 -29l-160 -168h-162v21l279 301h147l279 -301v-21h-166l-160 168l-16 29h-25zM434 631v-438h932v-193h-1171v1413h1161v-192h-922v-398h780v-192h-780z" />
    <glyph glyph-name="Edieresis" unicode="&#xcb;" horiz-adv-x="1470" 
d="M512 1792h170v-252h-170v252zM891 1792h170v-252h-170v252zM434 631v-438h932v-193h-1171v1413h1161v-192h-922v-398h780v-192h-780z" />
    <glyph glyph-name="Igrave" unicode="&#xcc;" horiz-adv-x="659" 
d="M463 1540h-180l-351 289v24h238l293 -290v-23zM457 0h-254v1413h254v-1413z" />
    <glyph glyph-name="Iacute" unicode="&#xcd;" horiz-adv-x="659" 
d="M324 1538h-179v27l293 288h242v-24zM457 0h-254v1413h254v-1413z" />
    <glyph glyph-name="Icircumflex" unicode="&#xce;" horiz-adv-x="659" 
d="M188 1538h-161v23l237 301h133l238 -301v-23h-168l-111 156l-14 28h-27l-16 -28zM457 0h-254v1413h254v-1413z" />
    <glyph glyph-name="Idieresis" unicode="&#xcf;" horiz-adv-x="659" 
d="M262 1540h-153v252h153v-252zM551 1540h-154v252h154v-252zM457 0h-254v1413h254v-1413z" />
    <glyph glyph-name="Eth" unicode="&#xd0;" horiz-adv-x="1787" 
d="M195 1413h673q375 0 580 -186t205 -520t-205 -520.5t-580 -186.5h-673v627h-168v159h168v627zM449 197h411q248 0 387 136.5t139 373.5t-139 374.5t-387 137.5h-411v-433h483v-159h-483v-430z" />
    <glyph glyph-name="Ntilde" unicode="&#xd1;" horiz-adv-x="1800" 
d="M1057 1546q-80 0 -172 56q-86 57 -129 57q-46 0 -70 -29t-22 -80h-115q-12 109 44.5 179.5t166.5 70.5q73 0 155 -55q85 -55 127 -55q43 0 66 29.5t18 76.5h127q11 -111 -41.5 -180.5t-154.5 -69.5zM424 0h-229v1413h270l833 -1005l43 -95h45l-10 103v997h230v-1413h-271
l-833 1006l-43 94h-45l10 -103v-997z" />
    <glyph glyph-name="Ograve" unicode="&#xd2;" horiz-adv-x="1861" 
d="M1065 1540h-180l-350 289v24h237l293 -290v-23zM934 -25q-373 0 -584 199q-213 201 -213 531q0 332 215 532q216 201 582 201q364 0 577 -201t213 -532q0 -332 -211 -531t-579 -199zM934 174q248 0 385 143q139 145 139 390t-141 389q-139 145 -383 145q-243 0 -387 -147
q-144 -144 -144 -389q0 -244 144 -388q143 -143 387 -143z" />
    <glyph glyph-name="Oacute" unicode="&#xd3;" horiz-adv-x="1861" 
d="M926 1538h-178v27l292 288h242v-24zM934 -25q-373 0 -584 199q-213 201 -213 531q0 332 215 532q216 201 582 201q364 0 577 -201t213 -532q0 -332 -211 -531t-579 -199zM934 174q248 0 385 143q139 145 139 390t-141 389q-139 145 -383 145q-243 0 -387 -147
q-144 -144 -144 -389q0 -244 144 -388q143 -143 387 -143z" />
    <glyph glyph-name="Ocircumflex" unicode="&#xd4;" horiz-adv-x="1861" 
d="M741 1540h-161v21l278 301h148l278 -301v-21h-166l-160 168l-16 29h-24l-17 -29zM934 -25q-373 0 -584 199q-213 201 -213 531q0 332 215 532q216 201 582 201q364 0 577 -201t213 -532q0 -332 -211 -531t-579 -199zM934 174q248 0 385 143q139 145 139 390t-141 389
q-139 145 -383 145q-243 0 -387 -147q-144 -144 -144 -389q0 -244 144 -388q143 -143 387 -143z" />
    <glyph glyph-name="Otilde" unicode="&#xd5;" horiz-adv-x="1861" 
d="M1081 1546q-80 0 -172 56q-86 57 -129 57q-46 0 -70 -29t-22 -80h-115q-12 109 44.5 179.5t166.5 70.5q74 0 156 -55q85 -55 127 -55q43 0 66 29.5t18 76.5h127q11 -111 -42 -180.5t-155 -69.5zM934 -25q-373 0 -584 199q-213 201 -213 531q0 332 215 532
q216 201 582 201q364 0 577 -201t213 -532q0 -332 -211 -531t-579 -199zM934 174q248 0 385 143q139 145 139 390t-141 389q-139 145 -383 145q-243 0 -387 -147q-144 -144 -144 -389q0 -244 144 -388q143 -143 387 -143z" />
    <glyph glyph-name="Odieresis" unicode="&#xd6;" horiz-adv-x="1861" 
d="M827 1540h-170v252h170v-252zM1206 1540h-170v252h170v-252zM934 -25q-373 0 -584 199q-213 201 -213 531q0 332 215 532q216 201 582 201q364 0 577 -201t213 -532q0 -332 -211 -531t-579 -199zM934 174q248 0 385 143q139 145 139 390t-141 389q-139 145 -383 145
q-243 0 -387 -147q-144 -144 -144 -389q0 -244 144 -388q143 -143 387 -143z" />
    <glyph glyph-name="multiply" unicode="&#xd7;" horiz-adv-x="1460" 
d="M729 467l-397 -328l-111 123l383 313l-381 314l109 121l399 -326l397 326l109 -121l-383 -314l381 -313l-107 -123z" />
    <glyph glyph-name="Oslash" unicode="&#xd8;" horiz-adv-x="1861" 
d="M1581 1516l-141 -220q284 -199 284 -591q0 -332 -211 -531t-579 -199q-171 0 -320 48l-100 -156h-225v31l139 215q-291 198 -291 592q0 332 215 532q216 201 582 201q177 0 326 -52l104 160h217v-30zM403 705q0 -251 154 -396l586 897q-96 35 -209 35q-243 0 -387 -147
q-144 -144 -144 -389zM934 174q248 0 385 143q139 145 139 390q0 250 -145 395l-580 -897q91 -31 201 -31z" />
    <glyph glyph-name="Ugrave" unicode="&#xd9;" horiz-adv-x="1761" 
d="M1012 1540h-181l-350 289v24h238l293 -290v-23zM881 -25q-328 0 -507 183t-179 526v729h256v-743q0 -236 110.5 -355.5t321.5 -119.5t322.5 119.5t111.5 355.5v743h252v-729q0 -343 -178.5 -526t-509.5 -183z" />
    <glyph glyph-name="Uacute" unicode="&#xda;" horiz-adv-x="1761" 
d="M872 1538h-178v27l293 288h242v-24zM881 -25q-328 0 -507 183t-179 526v729h256v-743q0 -236 110.5 -355.5t321.5 -119.5t322.5 119.5t111.5 355.5v743h252v-729q0 -343 -178.5 -526t-509.5 -183z" />
    <glyph glyph-name="Ucircumflex" unicode="&#xdb;" horiz-adv-x="1761" 
d="M688 1540h-162v21l279 301h147l279 -301v-21h-166l-160 168l-16 29h-25l-16 -29zM881 -25q-328 0 -507 183t-179 526v729h256v-743q0 -236 110.5 -355.5t321.5 -119.5t322.5 119.5t111.5 355.5v743h252v-729q0 -343 -178.5 -526t-509.5 -183z" />
    <glyph glyph-name="Udieresis" unicode="&#xdc;" horiz-adv-x="1761" 
d="M774 1540h-170v252h170v-252zM1153 1540h-170v252h170v-252zM881 -25q-328 0 -507 183t-179 526v729h256v-743q0 -236 110.5 -355.5t321.5 -119.5t322.5 119.5t111.5 355.5v743h252v-729q0 -343 -178.5 -526t-509.5 -183z" />
    <glyph glyph-name="Yacute" unicode="&#xdd;" horiz-adv-x="1626" 
d="M1165 1853v-24l-356 -291h-178v27l293 288h241zM1317 1413h252v-31l-627 -862v-520h-256v520l-629 860v33h260l455 -604l27 -74h37l26 74z" />
    <glyph glyph-name="Thorn" unicode="&#xde;" horiz-adv-x="1568" 
d="M449 1243h403q314 0 471.5 -131t157.5 -379q0 -246 -157 -377.5t-472 -132.5l-403 -2v-221h-254v1413h254v-170zM449 408h374q391 0 391 325q0 326 -391 326h-374v-651z" />
    <glyph glyph-name="germandbls" unicode="&#xdf;" horiz-adv-x="1484" 
d="M1006 741q229 -59 317 -139q94 -79 94 -235q0 -186 -124 -289t-357 -103q-181 0 -315 52v186q130 -59 276 -59q139 0 213 58t74 167q0 98 -75.5 150.5t-246.5 91.5q-15 4 -33 9t-28 7.5t-15 3.5l-57 23q-50 21 -67 44.5t-25 75.5q0 39 11 63t42 42q30 18 53 26l80 29
q134 39 194 84t60 123q0 87 -72 137.5t-196 50.5q-156 0 -246 -86.5t-90 -244.5v-1008h-231v874h-183v160h185q14 222 159 343.5t402 121.5q226 0 358.5 -83.5t132.5 -233.5q0 -118 -74 -184.5t-241 -118.5q-6 0 -10 -2q-94 -27 -107 -50l-4 -18q0 -13 5 -21t18.5 -13.5
t27 -9t42.5 -10.5t53 -14z" />
    <glyph glyph-name="agrave" unicode="&#xe0;" horiz-adv-x="1372" 
d="M807 1184v-23h-180l-351 289v25h238zM670 1059q557 0 557 -412v-647h-201v113l16 92h-26q-65 -105 -193 -167.5t-307 -62.5q-200 0 -312 77t-112 212q0 133 105 208t344 95l444 37v58q0 120 -82.5 182.5t-236.5 62.5q-301 0 -310 -215h-241q4 176 149.5 271.5t405.5 95.5
zM569 131q186 0 299 94q117 95 117 242v4l-412 -35q-237 -21 -237 -151q0 -74 61.5 -114t171.5 -40z" />
    <glyph glyph-name="aacute" unicode="&#xe1;" horiz-adv-x="1372" 
d="M1024 1475v-25l-356 -291h-179v27l293 289h242zM670 1059q557 0 557 -412v-647h-201v113l16 92h-26q-65 -105 -193 -167.5t-307 -62.5q-200 0 -312 77t-112 212q0 133 105 208t344 95l444 37v58q0 120 -82.5 182.5t-236.5 62.5q-301 0 -310 -215h-241q4 176 149.5 271.5
t405.5 95.5zM569 131q186 0 299 94q117 95 117 242v4l-412 -35q-237 -21 -237 -151q0 -74 61.5 -114t171.5 -40z" />
    <glyph glyph-name="acircumflex" unicode="&#xe2;" horiz-adv-x="1372" 
d="M659 1358l-16 -29l-160 -168h-161v21l278 301h148l278 -301v-21h-166l-160 168l-16 29h-25zM670 1059q557 0 557 -412v-647h-201v113l16 92h-26q-65 -105 -193 -167.5t-307 -62.5q-200 0 -312 77t-112 212q0 133 105 208t344 95l444 37v58q0 120 -82.5 182.5t-236.5 62.5
q-301 0 -310 -215h-241q4 176 149.5 271.5t405.5 95.5zM569 131q186 0 299 94q117 95 117 242v4l-412 -35q-237 -21 -237 -151q0 -74 61.5 -114t171.5 -40z" />
    <glyph glyph-name="atilde" unicode="&#xe3;" horiz-adv-x="1372" 
d="M432 1174h-115q-12 109 44.5 179t166.5 70q74 0 156 -55q85 -55 127 -55q43 0 66 29.5t18 76.5h127q11 -111 -42 -180.5t-155 -69.5q-80 0 -172 56q-86 57 -129 57q-46 0 -70 -28.5t-22 -79.5zM670 1059q557 0 557 -412v-647h-201v113l16 92h-26q-65 -105 -193 -167.5
t-307 -62.5q-200 0 -312 77t-112 212q0 133 105 208t344 95l444 37v58q0 120 -82.5 182.5t-236.5 62.5q-301 0 -310 -215h-241q4 176 149.5 271.5t405.5 95.5zM569 131q186 0 299 94q117 95 117 242v4l-412 -35q-237 -21 -237 -151q0 -74 61.5 -114t171.5 -40z" />
    <glyph glyph-name="adieresis" unicode="&#xe4;" horiz-adv-x="1372" 
d="M399 1413h170v-252h-170v252zM778 1413h170v-252h-170v252zM670 1059q557 0 557 -412v-647h-201v113l16 92h-26q-65 -105 -193 -167.5t-307 -62.5q-200 0 -312 77t-112 212q0 133 105 208t344 95l444 37v58q0 120 -82.5 182.5t-236.5 62.5q-301 0 -310 -215h-241
q4 176 149.5 271.5t405.5 95.5zM569 131q186 0 299 94q117 95 117 242v4l-412 -35q-237 -21 -237 -151q0 -74 61.5 -114t171.5 -40z" />
    <glyph glyph-name="aring" unicode="&#xe5;" horiz-adv-x="1372" 
d="M434 1352q0 98 67 159.5t173 61.5q105 0 171 -62t66 -159q0 -100 -65.5 -162t-171.5 -62t-173 62t-67 162zM545 1352q0 -58 35 -93.5t94 -35.5t94 35.5t35 93.5q0 57 -35 93t-94 36t-94 -36t-35 -93zM670 1059q557 0 557 -412v-647h-201v113l16 92h-26
q-65 -105 -193 -167.5t-307 -62.5q-200 0 -312 77t-112 212q0 133 105 208t344 95l444 37v58q0 120 -82.5 182.5t-236.5 62.5q-301 0 -310 -215h-241q4 176 149.5 271.5t405.5 95.5zM569 131q186 0 299 94q117 95 117 242v4l-412 -35q-237 -21 -237 -151q0 -74 61.5 -114
t171.5 -40z" />
    <glyph glyph-name="ae" unicode="&#xe6;" horiz-adv-x="2072" 
d="M1960 524v-43h-846q11 -174 95 -268t231 -94q213 0 280 196h230q-42 -160 -173.5 -249t-332.5 -89q-165 0 -288 67t-185 189l6 41h-16q-41 -122 -152 -208q-112 -89 -328 -89q-188 0 -288.5 76t-100.5 209q0 258 385 293l404 37v61q0 258 -275 258q-255 0 -264 -217h-229
q1 172 126.5 268.5t340.5 96.5q338 0 430 -225l-9 -43h19q52 119 166 193.5t274 74.5q232 0 366 -144t134 -391zM1120 608h621q-19 147 -99 228.5t-210 81.5t-211.5 -81t-100.5 -229zM555 125q158 0 242 82t84 235v39l-334 -30q-118 -12 -171.5 -51t-53.5 -111
q0 -79 61 -121.5t172 -42.5z" />
    <glyph glyph-name="ccedilla" unicode="&#xe7;" horiz-adv-x="1423" 
d="M735 143q127 0 219 57t133 160h244q-31 -166 -175 -269.5t-368 -113.5l-86 -122h66q114 0 172.5 -42.5t58.5 -121.5q0 -94 -81.5 -144.5t-231.5 -50.5q-123 0 -217 23v108q89 -28 215 -28q166 0 166 90q0 73 -129 73h-197v15l142 200q-258 18 -410 164q-147 144 -147 377
q0 248 167 393q171 148 461 148q242 0 402 -103t192 -280h-244q-37 101 -130 159t-222 58q-177 0 -281 -103t-104 -270q0 -171 104.5 -274t280.5 -103z" />
    <glyph glyph-name="egrave" unicode="&#xe8;" horiz-adv-x="1415" 
d="M840 1184v-23h-181l-350 289v25h238zM1303 524v-45h-951q11 -159 108 -245.5t267 -86.5q256 0 338 168h225q-48 -158 -198.5 -248t-380.5 -90q-282 0 -443 146q-159 144 -159 387q0 247 163 397q169 152 445 152q272 0 428 -144q158 -143 158 -391zM715 899
q-142 0 -236.5 -74.5t-120.5 -208.5h703q-24 133 -113 208t-233 75z" />
    <glyph glyph-name="eacute" unicode="&#xe9;" horiz-adv-x="1415" 
d="M1057 1473v-25l-357 -291h-178v27l293 289h242zM1303 524v-45h-951q11 -159 108 -245.5t267 -86.5q256 0 338 168h225q-48 -158 -198.5 -248t-380.5 -90q-282 0 -443 146q-159 144 -159 387q0 247 163 397q169 152 445 152q272 0 428 -144q158 -143 158 -391zM715 899
q-142 0 -236.5 -74.5t-120.5 -208.5h703q-24 133 -113 208t-233 75z" />
    <glyph glyph-name="ecircumflex" unicode="&#xea;" horiz-adv-x="1415" 
d="M692 1358l-16 -29l-160 -168h-162v21l279 301h147l279 -301v-21h-166l-160 168l-16 29h-25zM1303 524v-45h-951q11 -159 108 -245.5t267 -86.5q256 0 338 168h225q-48 -158 -198.5 -248t-380.5 -90q-282 0 -443 146q-159 144 -159 387q0 247 163 397q169 152 445 152
q272 0 428 -144q158 -143 158 -391zM715 899q-142 0 -236.5 -74.5t-120.5 -208.5h703q-24 133 -113 208t-233 75z" />
    <glyph glyph-name="edieresis" unicode="&#xeb;" horiz-adv-x="1415" 
d="M432 1413h170v-252h-170v252zM811 1413h170v-252h-170v252zM1303 524v-45h-951q11 -159 108 -245.5t267 -86.5q256 0 338 168h225q-48 -158 -198.5 -248t-380.5 -90q-282 0 -443 146q-159 144 -159 387q0 247 163 397q169 152 445 152q272 0 428 -144q158 -143 158 -391z
M715 899q-142 0 -236.5 -74.5t-120.5 -208.5h703q-24 133 -113 208t-233 75z" />
    <glyph glyph-name="igrave" unicode="&#xec;" horiz-adv-x="546" 
d="M408 1161h-181l-350 289v25h238l293 -291v-23zM393 0h-239v1034h239v-1034z" />
    <glyph glyph-name="iacute" unicode="&#xed;" horiz-adv-x="546" 
d="M268 1159h-178v27l293 289h242v-25zM393 0h-239v1034h239v-1034z" />
    <glyph glyph-name="icircumflex" unicode="&#xee;" horiz-adv-x="546" 
d="M133 1159h-162v23l236 301h135l236 -301v-23h-168l-109 156l-16 28h-25l-18 -28zM393 0h-239v1034h239v-1034z" />
    <glyph glyph-name="idieresis" unicode="&#xef;" horiz-adv-x="546" 
d="M207 1161h-154v252h154v-252zM496 1161h-154v252h154v-252zM393 0h-239v1034h239v-1034z" />
    <glyph glyph-name="eth" unicode="&#xf0;" horiz-adv-x="1441" 
d="M1239 1616l-182 -205q286 -160 286 -606q0 -236 -26 -369q-27 -138 -103 -239q-76 -103 -207.5 -161.5t-304.5 -58.5q-267 0 -432 142q-161 139 -161 377q0 228 153 372q155 146 408 146q150 0 272.5 -53.5t185.5 -147.5h17l-12 55l-17 54q-38 227 -209 321l-147 -164
h-209v21l174 203q-47 6 -98 6q-274 0 -475 -125v209q239 106 503 106q115 0 222 -22l135 157h227v-18zM729 145q169 0 270 98t101 257q0 162 -107 256q-104 94 -268 94q-172 0 -272 -100q-103 -100 -103 -254q0 -156 104 -253.5t275 -97.5z" />
    <glyph glyph-name="ntilde" unicode="&#xf1;" horiz-adv-x="1429" 
d="M469 1174h-115q-12 109 44.5 179t166.5 70q74 0 156 -55q85 -55 125 -55q89 0 86 104h127q8 -111 -44.5 -179.5t-154.5 -68.5q-80 0 -172 56q-88 55 -129 55q-93 0 -90 -106zM821 1059q226 0 344.5 -112t118.5 -324v-623h-240v575q0 308 -296 308q-163 0 -261 -91
t-98 -249v-543h-239v1034h200v-106l-14 -92h20q60 102 178 162.5t287 60.5z" />
    <glyph glyph-name="ograve" unicode="&#xf2;" horiz-adv-x="1462" 
d="M866 1161h-180l-350 289v25h237l293 -291v-23zM735 1059q285 0 453 -148q168 -146 168 -393q0 -246 -166 -393q-165 -148 -455 -148q-288 0 -459 148q-167 145 -167 393t167 393q171 148 459 148zM1118 518q0 172 -102.5 274.5t-280.5 102.5t-283.5 -104t-105.5 -273
q0 -171 105.5 -274t283.5 -103q176 0 279.5 104t103.5 273z" />
    <glyph glyph-name="oacute" unicode="&#xf3;" horiz-adv-x="1462" 
d="M727 1159h-178v27l293 289h241v-25zM735 1059q285 0 453 -148q168 -146 168 -393q0 -246 -166 -393q-165 -148 -455 -148q-288 0 -459 148q-167 145 -167 393t167 393q171 148 459 148zM1118 518q0 172 -102.5 274.5t-280.5 102.5t-283.5 -104t-105.5 -273
q0 -171 105.5 -274t283.5 -103q176 0 279.5 104t103.5 273z" />
    <glyph glyph-name="ocircumflex" unicode="&#xf4;" horiz-adv-x="1462" 
d="M543 1161h-162v21l278 301h148l278 -301v-21h-165l-160 168l-17 29h-24l-17 -29zM735 1059q285 0 453 -148q168 -146 168 -393q0 -246 -166 -393q-165 -148 -455 -148q-288 0 -459 148q-167 145 -167 393t167 393q171 148 459 148zM1118 518q0 172 -102.5 274.5
t-280.5 102.5t-283.5 -104t-105.5 -273q0 -171 105.5 -274t283.5 -103q176 0 279.5 104t103.5 273z" />
    <glyph glyph-name="otilde" unicode="&#xf5;" horiz-adv-x="1462" 
d="M883 1167q-80 0 -172 56q-86 57 -129 57q-46 0 -70.5 -29.5t-22.5 -79.5h-114q-12 109 44.5 179.5t166.5 70.5q73 0 155 -55q85 -55 127 -55q43 0 66 29.5t18 76.5h127q11 -111 -41.5 -180.5t-154.5 -69.5zM735 1059q285 0 453 -148q168 -146 168 -393q0 -246 -166 -393
q-165 -148 -455 -148q-288 0 -459 148q-167 145 -167 393t167 393q171 148 459 148zM1118 518q0 172 -102.5 274.5t-280.5 102.5t-283.5 -104t-105.5 -273q0 -171 105.5 -274t283.5 -103q176 0 279.5 104t103.5 273z" />
    <glyph glyph-name="odieresis" unicode="&#xf6;" horiz-adv-x="1462" 
d="M627 1161h-170v252h170v-252zM1006 1161h-170v252h170v-252zM735 1059q285 0 453 -148q168 -146 168 -393q0 -246 -166 -393q-165 -148 -455 -148q-288 0 -459 148q-167 145 -167 393t167 393q171 148 459 148zM1118 518q0 172 -102.5 274.5t-280.5 102.5t-283.5 -104
t-105.5 -273q0 -171 105.5 -274t283.5 -103q176 0 279.5 104t103.5 273z" />
    <glyph glyph-name="divide" unicode="&#xf7;" horiz-adv-x="1437" 
d="M717 1069q51 0 84 -32t33 -83t-31.5 -81.5t-85.5 -30.5t-85.5 30.5t-31.5 81.5q0 52 32 83.5t85 31.5zM1257 494h-1077v159h1077v-159zM600 190q0 54 31.5 84.5t85.5 30.5q53 0 85 -31.5t32 -83.5q0 -51 -31.5 -81.5t-85.5 -30.5t-85.5 30.5t-31.5 81.5z" />
    <glyph glyph-name="oslash" unicode="&#xf8;" horiz-adv-x="1462" 
d="M1305 1163l-156 -221q207 -145 207 -424q0 -246 -166 -393q-165 -148 -455 -148q-152 0 -280 46l-142 -203h-194v33l174 245l6 8q-190 150 -190 412q0 248 167 393q171 148 459 148q142 0 258 -39l127 178h185v-35zM346 518q0 -143 80 -246l457 600q-74 23 -148 23
q-178 0 -283.5 -104t-105.5 -273zM735 141q176 0 279.5 104t103.5 273q0 158 -90 262l-461 -608q76 -31 168 -31z" />
    <glyph glyph-name="ugrave" unicode="&#xf9;" horiz-adv-x="1402" 
d="M829 1184v-23h-180l-350 289v25h238zM1016 494v542h239v-1036h-200v106l16 95h-18q-130 -226 -455 -226q-219 0 -333.5 113.5t-114.5 327.5v620h241v-575q0 -309 281 -309q157 0 250.5 92t93.5 250z" />
    <glyph glyph-name="uacute" unicode="&#xfa;" horiz-adv-x="1402" 
d="M1047 1475v-25l-355 -291h-180v27l295 289h240zM1016 494v540h241v-1034h-200v106l14 95h-20q-59 -103 -174 -164.5t-279 -61.5q-219 0 -333.5 113.5t-114.5 327.5v618h239v-573q0 -309 283 -309q157 0 250.5 92t93.5 250z" />
    <glyph glyph-name="ucircumflex" unicode="&#xfb;" horiz-adv-x="1402" 
d="M684 1358l-16 -29l-158 -170h-164v23l279 301h147l281 -301v-23h-168l-160 170l-14 29h-27zM1016 494v540h241v-1034h-200v106l14 95h-20q-59 -103 -174 -164.5t-279 -61.5q-219 0 -333.5 113.5t-114.5 327.5v618h239v-573q0 -309 283 -309q157 0 250.5 92t93.5 250z" />
    <glyph glyph-name="udieresis" unicode="&#xfc;" horiz-adv-x="1402" 
d="M422 1413h170v-252h-170v252zM801 1413h170v-252h-170v252zM1016 494v542h239v-1036h-200v106l16 95h-18q-130 -226 -455 -226q-219 0 -333.5 113.5t-114.5 327.5v620h241v-575q0 -309 281 -309q157 0 250.5 92t93.5 250z" />
    <glyph glyph-name="yacute" unicode="&#xfd;" horiz-adv-x="1363" 
d="M678 1159h-178v27l293 289h241v-25zM338 -377q-135 0 -236 39v191q113 -46 228 -46q139 0 215 107l37 66l41 16v27h-97l-469 983v28h238l360 -770l13 -51h34l13 51l360 770h232v-24l-514 -1082q-72 -159 -181 -232t-274 -73z" />
    <glyph glyph-name="thorn" unicode="&#xfe;" horiz-adv-x="1478" 
d="M823 1059q253 0 400 -150q147 -147 147 -389q0 -244 -149 -393q-150 -150 -400 -150q-158 0 -276.5 60.5t-182.5 163.5h-22l12 -66l41 -69v-439h-243v1848h245v-500l-43 -70l-14 -67h27q64 102 181.5 161.5t276.5 59.5zM756 145q169 0 268 105q98 107 98 268
q0 163 -100 266q-101 107 -266 107q-163 0 -265 -102.5t-102 -272.5q0 -167 103 -270q101 -101 264 -101z" />
    <glyph glyph-name="ydieresis" unicode="&#xff;" horiz-adv-x="1363" 
d="M578 1161h-170v252h170v-252zM956 1161h-170v252h170v-252zM338 -377q-135 0 -236 39v191q113 -46 228 -46q139 0 215 107l37 66l41 16v27h-97l-469 983v28h238l360 -770l13 -51h34l13 51l360 770h232v-24l-514 -1082q-72 -159 -181 -232t-274 -73z" />
    <glyph glyph-name="Amacron" unicode="&#x100;" horiz-adv-x="1712" 
d="M543 1749h626v-147h-626v147zM668 1413h376l611 -1380v-33h-248l-127 291h-852l-125 -291h-246v31zM811 1178l-303 -701h690l-307 701l-19 73h-41z" />
    <glyph glyph-name="amacron" unicode="&#x101;" horiz-adv-x="1372" 
d="M360 1370h627v-147h-627v147zM670 1059q557 0 557 -412v-647h-201v113l16 92h-26q-65 -105 -193 -167.5t-307 -62.5q-200 0 -312 77t-112 212q0 133 105 208t344 95l444 37v58q0 120 -82.5 182.5t-236.5 62.5q-301 0 -310 -215h-241q4 176 149.5 271.5t405.5 95.5z
M569 131q186 0 299 94q117 95 117 242v4l-412 -35q-237 -21 -237 -151q0 -74 61.5 -114t171.5 -40z" />
    <glyph glyph-name="Abreve" unicode="&#x102;" horiz-adv-x="1712" 
d="M475 1817h139q2 -82 64.5 -127t177.5 -45q114 0 178 46t66 126h137q0 -140 -101 -217.5t-280 -77.5t-280 77.5t-101 217.5zM668 1413h376l611 -1380v-33h-248l-127 291h-852l-125 -291h-246v31zM811 1178l-303 -701h690l-307 701l-19 73h-41z" />
    <glyph glyph-name="abreve" unicode="&#x103;" horiz-adv-x="1372" 
d="M293 1438h139q2 -82 64.5 -127t177.5 -45q114 0 178 46t66 126h137q0 -140 -101 -217.5t-280 -77.5t-280 77.5t-101 217.5zM670 1059q557 0 557 -412v-647h-201v113l16 92h-26q-65 -105 -193 -167.5t-307 -62.5q-200 0 -312 77t-112 212q0 133 105 208t344 95l444 37v58
q0 120 -82.5 182.5t-236.5 62.5q-301 0 -310 -215h-241q4 176 149.5 271.5t405.5 95.5zM569 131q186 0 299 94q117 95 117 242v4l-412 -35q-237 -21 -237 -151q0 -74 61.5 -114t171.5 -40z" />
    <glyph glyph-name="Aogonek" unicode="&#x104;" horiz-adv-x="1712" 
d="M1655 33v-33q-146 -13 -235 -61t-89 -109q0 -38 33 -60t88 -22q62 0 129 25v-125q-72 -29 -168 -29q-118 0 -188 45.5t-70 128.5q0 76 66.5 135.5t175.5 89.5l-121 273h-844l-129 -291h-246v31l611 1382h376zM815 1155l-301 -678h680l-299 678l-21 74h-38z" />
    <glyph glyph-name="aogonek" unicode="&#x105;" horiz-adv-x="1372" 
d="M670 1059q557 0 557 -412v-647q-106 -21 -178 -68.5t-72 -101.5q0 -38 33 -60t88 -22q59 0 129 25v-125q-82 -29 -168 -29q-115 0 -185.5 46t-70.5 126q0 71 53 121.5t170 95.5v105l16 92h-26q-65 -105 -193 -167.5t-307 -62.5q-200 0 -312 77t-112 212q0 260 449 295
l444 37v66q0 120 -82.5 182.5t-236.5 62.5q-301 0 -310 -215h-241q4 176 149.5 271.5t405.5 95.5zM592 127q178 0 287 92q106 93 106 234v28l-389 -32q-260 -21 -260 -158q0 -79 68 -121.5t188 -42.5z" />
    <glyph glyph-name="Cacute" unicode="&#x106;" horiz-adv-x="1804" 
d="M893 1538h-178v27l293 288h241v-24zM934 -25q-373 0 -584 199q-213 201 -213 531q0 332 215 532q216 201 582 201q302 0 498 -138q196 -136 243 -374h-274q-44 142 -170.5 223.5t-302.5 81.5q-233 0 -379 -146q-141 -144 -141 -380q0 -238 143 -381q145 -142 379 -142
q176 0 302.5 81.5t170.5 223.5h272q-45 -239 -240 -375.5t-501 -136.5z" />
    <glyph glyph-name="cacute" unicode="&#x107;" horiz-adv-x="1423" 
d="M713 1159h-178v27l292 289h242v-25zM735 -25q-288 0 -459 148q-167 148 -167 395q0 248 167 393q171 148 461 148q242 0 402 -103t192 -280h-244q-37 101 -130 159t-222 58q-177 0 -281 -103t-104 -270q0 -171 104.5 -274t280.5 -103q127 0 219 57t133 160h244
q-29 -169 -190 -278q-155 -107 -406 -107z" />
    <glyph glyph-name="Cdotaccent" unicode="&#x10a;" horiz-adv-x="1804" 
d="M1020 1536h-244v291h244v-291zM934 -25q-373 0 -584 199q-213 201 -213 531q0 332 215 532q216 201 582 201q302 0 498 -138q196 -136 243 -374h-274q-44 142 -170.5 223.5t-302.5 81.5q-233 0 -379 -146q-141 -144 -141 -380q0 -238 143 -381q145 -142 379 -142
q176 0 302.5 81.5t170.5 223.5h272q-45 -239 -240 -375.5t-501 -136.5z" />
    <glyph glyph-name="cdotaccent" unicode="&#x10b;" horiz-adv-x="1423" 
d="M840 1157h-244v291h244v-291zM735 -25q-288 0 -459 148q-167 148 -167 395q0 248 167 393q171 148 461 148q242 0 402 -103t192 -280h-244q-37 101 -130 159t-222 58q-177 0 -281 -103t-104 -270q0 -171 104.5 -274t280.5 -103q127 0 219 57t133 160h244
q-29 -169 -190 -278q-155 -107 -406 -107z" />
    <glyph glyph-name="Ccaron" unicode="&#x10c;" horiz-adv-x="1804" 
d="M1081 1853h162v-22l-278 -299h-148l-278 301v20h166l159 -170l17 -28h24l17 28zM934 -25q-373 0 -584 199q-213 201 -213 531q0 332 215 532q216 201 582 201q302 0 498 -138q196 -136 243 -374h-274q-44 142 -170.5 223.5t-302.5 81.5q-233 0 -379 -146
q-141 -144 -141 -380q0 -238 143 -381q145 -142 379 -142q176 0 302.5 81.5t170.5 223.5h272q-45 -239 -240 -375.5t-501 -136.5z" />
    <glyph glyph-name="ccaron" unicode="&#x10d;" horiz-adv-x="1423" 
d="M901 1475h162v-23l-279 -299h-147l-279 301v21h166l160 -170l16 -29h25l16 29zM735 -25q-288 0 -459 148q-167 148 -167 395q0 248 167 393q171 148 461 148q242 0 402 -103t192 -280h-244q-37 101 -130 159t-222 58q-177 0 -281 -103t-104 -270q0 -171 104.5 -274
t280.5 -103q127 0 219 57t133 160h244q-29 -169 -190 -278q-155 -107 -406 -107z" />
    <glyph glyph-name="Dcaron" unicode="&#x10e;" horiz-adv-x="1787" 
d="M1233 1831l-279 -299h-147l-279 301v20h166l160 -170l16 -28h25l16 28l160 170h162v-22zM195 1413h673q375 0 580 -186t205 -520t-205 -520.5t-580 -186.5h-673v1413zM449 197h411q248 0 387 136.5t139 373.5t-139 374.5t-387 137.5h-411v-1022z" />
    <glyph glyph-name="dcaron" unicode="&#x10f;" horiz-adv-x="1474" 
d="M1126 903l-41 70v502h244v-1475h-203v117l15 86h-23q-64 -103 -183.5 -164.5t-277.5 -61.5q-244 0 -397 150q-151 151 -151 389q0 241 153 391q155 152 397 152q161 0 280 -62t181 -168h21zM1477 1100l118 375h201v-25l-174 -375h-145v25zM725 145q163 0 264 102.5
t101 272.5q0 168 -103 271q-102 102 -262 102q-169 0 -270 -107q-99 -108 -99 -268q0 -161 101 -268q102 -105 268 -105z" />
    <glyph glyph-name="Dcroat" unicode="&#x110;" horiz-adv-x="1787" 
d="M195 1413h673q375 0 580 -186t205 -520t-205 -520.5t-580 -186.5h-673v627h-168v159h168v627zM449 197h411q248 0 387 136.5t139 373.5t-139 374.5t-387 137.5h-411v-433h483v-159h-483v-430z" />
    <glyph glyph-name="dslash" unicode="&#x111;" horiz-adv-x="1474" 
d="M1329 1313h162v-144h-162v-1169h-203v117l15 86h-23q-64 -103 -183.5 -164.5t-277.5 -61.5q-244 0 -397 150q-151 151 -151 389q0 241 153 391q155 152 397 152q161 0 280 -62t181 -168h21l-15 74l-41 70v196h-444v144h444v162h244v-162zM725 145q163 0 264 102.5
t101 272.5q0 168 -103 271q-102 102 -262 102q-169 0 -270 -107q-99 -108 -99 -268q0 -161 101 -268q102 -105 268 -105z" />
    <glyph glyph-name="Emacron" unicode="&#x112;" horiz-adv-x="1470" 
d="M473 1749h627v-147h-627v147zM434 631v-438h932v-193h-1171v1413h1161v-192h-922v-398h780v-192h-780z" />
    <glyph glyph-name="emacron" unicode="&#x113;" horiz-adv-x="1415" 
d="M393 1370h627v-147h-627v147zM1303 524v-45h-951q11 -159 108 -245.5t267 -86.5q256 0 338 168h225q-48 -158 -198.5 -248t-380.5 -90q-282 0 -443 146q-159 144 -159 387q0 247 163 397q169 152 445 152q272 0 428 -144q158 -143 158 -391zM715 899q-142 0 -236.5 -74.5
t-120.5 -208.5h703q-24 133 -113 208t-233 75z" />
    <glyph glyph-name="Edotaccent" unicode="&#x116;" horiz-adv-x="1470" 
d="M666 1827h243v-291h-243v291zM434 631v-438h932v-193h-1171v1413h1161v-192h-922v-398h780v-192h-780z" />
    <glyph glyph-name="edotaccent" unicode="&#x117;" horiz-adv-x="1415" 
d="M584 1446h243v-291h-243v291zM1303 524v-45h-951q11 -159 108 -245.5t267 -86.5q256 0 338 168h225q-48 -158 -198.5 -248t-380.5 -90q-282 0 -443 146q-159 144 -159 387q0 247 163 397q169 152 445 152q272 0 428 -144q158 -143 158 -391zM715 899q-142 0 -236.5 -74.5
t-120.5 -208.5h703q-24 133 -113 208t-233 75z" />
    <glyph glyph-name="Eogonek" unicode="&#x118;" horiz-adv-x="1476" 
d="M1370 184v-184q-105 -19 -176.5 -67t-71.5 -103q0 -82 119 -82q62 0 129 25v-125q-72 -29 -168 -29q-115 0 -186.5 46t-71.5 126q0 74 63.5 132.5t170.5 88.5v33l-162 -45h-821v1413h1165v-184h-916v-424h777v-170h-777v-451h926z" />
    <glyph glyph-name="eogonek" unicode="&#x119;" horiz-adv-x="1421" 
d="M1309 524v-41h-961q7 -173 107.5 -267.5t273.5 -94.5q249 0 332 194h237q-52 -175 -215 -260q-121 -64 -179 -115t-58 -104q0 -42 34 -65t91 -23q58 0 125 25v-125q-72 -29 -168 -29q-115 0 -184.5 46t-69.5 126q0 134 184 207v35l-180 -53q-266 9 -418 155
q-151 148 -151 381q0 247 165 393q166 150 447 150q275 0 431.5 -142.5t156.5 -392.5zM721 918q-152 0 -248 -81t-119 -229h725q-20 147 -112.5 228.5t-245.5 81.5z" />
    <glyph glyph-name="Ecaron" unicode="&#x11a;" horiz-adv-x="1470" 
d="M1133 1831l-279 -299h-147l-279 301v20h166l160 -170l16 -28h25l16 28l160 170h162v-22zM434 631v-438h932v-193h-1171v1413h1161v-192h-922v-398h780v-192h-780z" />
    <glyph glyph-name="ecaron" unicode="&#x11b;" horiz-adv-x="1415" 
d="M1051 1452l-279 -299h-147l-279 301v21h166l160 -170l16 -29h25l16 29l160 170h162v-23zM1303 524v-45h-951q11 -159 108 -245.5t267 -86.5q256 0 338 168h225q-48 -158 -198.5 -248t-380.5 -90q-282 0 -443 146q-159 144 -159 387q0 247 163 397q169 152 445 152
q272 0 428 -144q158 -143 158 -391zM715 899q-142 0 -236.5 -74.5t-120.5 -208.5h703q-24 133 -113 208t-233 75z" />
    <glyph glyph-name="Gbreve" unicode="&#x11e;" horiz-adv-x="1841" 
d="M535 1817h139q2 -82 64 -127t177 -45q114 0 178 46t66 126h137q0 -140 -101 -217.5t-280 -77.5t-279.5 77.5t-100.5 217.5zM1419 571h-526v162h778v-733h-190v166l28 123h-34q-153 -314 -576 -314q-347 0 -555 199q-207 201 -207 531q0 332 215 532q216 201 582 201
q298 0 493 -133q195 -131 248 -357h-266q-44 136 -171.5 215.5t-303.5 79.5q-241 0 -385 -147q-143 -146 -143 -391t145 -390q148 -145 391 -145q207 0 332.5 109t144.5 292z" />
    <glyph glyph-name="gbreve" unicode="&#x11f;" horiz-adv-x="1486" 
d="M360 1438h140q2 -82 64 -127t177 -45q114 0 178 46t66 126h137q0 -140 -101 -217.5t-280 -77.5t-280 77.5t-101 217.5zM1120 924v110h221v-901q0 -254 -160.5 -390t-475.5 -136q-263 0 -414 98.5t-176 282.5h245q19 -105 112 -165.5t241 -60.5q355 0 370 332l39 84l15 62
h-23q-62 -102 -180.5 -161t-278.5 -59q-252 0 -399 144t-147 377q0 230 147 374q150 144 397 144q159 0 279 -59.5t182 -159.5h23zM723 170q162 0 262 100q102 102 102 273q0 169 -100.5 268.5t-263.5 99.5q-166 0 -266.5 -103.5t-100.5 -266.5t101 -267t266 -104z" />
    <glyph glyph-name="Gdotaccent" unicode="&#x120;" horiz-adv-x="1841" 
d="M795 1827h243v-291h-243v291zM1419 571h-526v162h778v-733h-190v166l28 123h-34q-153 -314 -576 -314q-347 0 -555 199q-207 201 -207 531q0 332 215 532q216 201 582 201q298 0 493 -133q195 -131 248 -357h-266q-44 136 -171.5 215.5t-303.5 79.5q-241 0 -385 -147
q-143 -146 -143 -391t145 -390q148 -145 391 -145q207 0 332.5 109t144.5 292z" />
    <glyph glyph-name="gdotaccent" unicode="&#x121;" horiz-adv-x="1486" 
d="M618 1448h244v-291h-244v291zM1120 924v110h221v-901q0 -254 -160.5 -390t-475.5 -136q-263 0 -414 98.5t-176 282.5h245q19 -105 112 -165.5t241 -60.5q355 0 370 332l39 84l15 62h-23q-62 -102 -180.5 -161t-278.5 -59q-252 0 -399 144t-147 377q0 230 147 374
q150 144 397 144q159 0 279 -59.5t182 -159.5h23zM723 170q162 0 262 100q102 102 102 273q0 169 -100.5 268.5t-263.5 99.5q-166 0 -266.5 -103.5t-100.5 -266.5t101 -267t266 -104z" />
    <glyph glyph-name="uni0122" unicode="&#x122;" horiz-adv-x="1841" 
d="M1419 571h-526v162h778v-733h-190v166l28 123h-34q-153 -314 -576 -314q-347 0 -555 199q-207 201 -207 531q0 332 215 532q216 201 582 201q298 0 493 -133q195 -131 248 -357h-266q-44 136 -171.5 215.5t-303.5 79.5q-241 0 -385 -147q-143 -146 -143 -391t145 -390
q148 -145 391 -145q207 0 332.5 109t144.5 292zM672 -496v25l125 336h233v-23l-178 -338h-180z" />
    <glyph glyph-name="uni0123" unicode="&#x123;" horiz-adv-x="1486" 
d="M1102 1475v-25l-318 -291h-229v27l369 289h178zM1120 924v110h221v-901q0 -254 -160.5 -390t-475.5 -136q-263 0 -414 98.5t-176 282.5h245q19 -105 112 -165.5t241 -60.5q355 0 370 332l39 84l15 62h-23q-62 -102 -180.5 -161t-278.5 -59q-252 0 -399 144t-147 377
q0 230 147 374q150 144 397 144q159 0 279 -59.5t182 -159.5h23zM723 170q162 0 262 100q102 102 102 273q0 169 -100.5 268.5t-263.5 99.5q-166 0 -266.5 -103.5t-100.5 -266.5t101 -267t266 -104z" />
    <glyph glyph-name="Hbar" unicode="&#x126;" horiz-adv-x="1761" 
d="M1567 1182h123v-172h-123v-1010h-254v602h-864v-602h-254v1010h-132v172h132v231h254v-244h864v244h254v-231zM449 1022v-217h864v217h-864z" />
    <glyph glyph-name="hbar" unicode="&#x127;" horiz-adv-x="1445" 
d="M838 1059q226 0 344 -112t118 -324v-621h-241v573q0 308 -295 308q-163 0 -259.5 -91t-96.5 -249v-543h-242v1169h-127v144h127v162h242v-162l546 -2v-142h-546v-200l-41 -66l-17 -65h23q60 101 179 161t286 60z" />
    <glyph glyph-name="Imacron" unicode="&#x12a;" horiz-adv-x="659" 
d="M643 1602h-627v147h627v-147zM457 0h-254v1413h254v-1413z" />
    <glyph glyph-name="imacron" unicode="&#x12b;" horiz-adv-x="546" 
d="M586 1223h-627v147h627v-147zM393 0h-239v1034h239v-1034z" />
    <glyph glyph-name="Iogonek" unicode="&#x12e;" horiz-adv-x="659" 
d="M457 1413v-1415q-96 -19 -162 -66.5t-66 -101.5q0 -38 29.5 -60t79.5 -22q58 0 119 25v-125q-76 -29 -158 -29q-111 0 -179.5 46t-68.5 126q0 78 66.5 140.5t177.5 93.5v28l-92 -30v1390h254z" />
    <glyph glyph-name="iogonek" unicode="&#x12f;" horiz-adv-x="567" 
d="M152 1210v265h264l-2 -265h-262zM246 51l-82 -28v1011h239v-1036q-95 -19 -159 -66t-64 -102q0 -37 30 -59.5t75 -22.5q57 0 118 25v-125q-76 -29 -157 -29q-108 0 -176 46t-68 126t67.5 142t176.5 92v26z" />
    <glyph glyph-name="Idot" unicode="&#x130;" horiz-adv-x="659" 
d="M451 1536h-244v291h244v-291zM457 0h-254v1413h254v-1413z" />
    <glyph glyph-name="dotlessi" unicode="&#x131;" horiz-adv-x="546" 
d="M393 0h-239v1034h239v-1034z" />
    <glyph glyph-name="uni0136" unicode="&#x136;" horiz-adv-x="1609" 
d="M1239 1413h313v-35l-829 -678l829 -667v-33h-313l-741 586l-19 37h-30v-623h-254v1413h254v-637h30l19 35zM584 -496v25l125 336h233v-23l-178 -338h-180z" />
    <glyph glyph-name="uni0137" unicode="&#x137;" horiz-adv-x="1310" 
d="M1255 1006l-591 -461l593 -516v-29h-286l-512 430l-33 51h-35v-481h-241v1475h241v-871h35l33 53l502 377h294v-28zM377 -496v25l125 336h233v-23l-178 -338h-180z" />
    <glyph glyph-name="Lacute" unicode="&#x139;" horiz-adv-x="1355" 
d="M764 1853v-24l-356 -291h-179v27l293 288h242zM449 1413v-1194h856v-219h-1110v1413h254z" />
    <glyph glyph-name="lacute" unicode="&#x13a;" horiz-adv-x="622" 
d="M305 1563h-178v26l293 289h242v-25zM432 0h-242v1475h242v-1475z" />
    <glyph glyph-name="uni013B" unicode="&#x13b;" horiz-adv-x="1355" 
d="M449 1413v-1194h856v-219h-1110v1413h254zM518 -496v25l125 336h234v-23l-179 -338h-180z" />
    <glyph glyph-name="uni013C" unicode="&#x13c;" horiz-adv-x="622" 
d="M432 0h-242v1475h242v-1475zM279 -496h-181v25l125 336h234v-23z" />
    <glyph glyph-name="Lcaron" unicode="&#x13d;" horiz-adv-x="1355" 
d="M449 1413v-1194h856v-219h-1110v1413h254zM1296 1413v-24l-174 -375h-145v24l119 375h200z" />
    <glyph glyph-name="lcaron" unicode="&#x13e;" horiz-adv-x="622" 
d="M432 0h-242v1475h242v-1475zM696 1075h-145v25l119 375h200v-25z" />
    <glyph glyph-name="Lslash" unicode="&#x141;" horiz-adv-x="1355" 
d="M449 674v-455h856v-219h-1110v559l-115 -53h-19v188l134 58v661h254v-555l378 184h17v-192l-383 -172z" />
    <glyph glyph-name="lslash" unicode="&#x142;" horiz-adv-x="622" 
d="M578 899h16v-166l-162 -69v-664h-242v557l-129 -61h-16v161l145 68v750h242v-644z" />
    <glyph glyph-name="Nacute" unicode="&#x143;" horiz-adv-x="1800" 
d="M901 1538h-178v27l293 288h241v-24zM424 0h-229v1413h270l833 -1005l43 -95h45l-10 103v997h230v-1413h-271l-833 1006l-43 94h-45l10 -103v-997z" />
    <glyph glyph-name="nacute" unicode="&#x144;" horiz-adv-x="1429" 
d="M1061 1475v-25l-356 -291h-179v27l293 289h242zM821 1059q226 0 344.5 -112t118.5 -324v-623h-242v575q0 308 -294 308q-163 0 -260 -91t-97 -249v-543h-241v1034h200v-106l-14 -92h20q60 102 178 162.5t287 60.5z" />
    <glyph glyph-name="uni0145" unicode="&#x145;" horiz-adv-x="1800" 
d="M424 0h-229v1413h270l833 -1005l43 -95h45l-10 103v997h230v-1413h-271l-833 1006l-43 94h-45l10 -103v-997zM874 -496h-180v25l125 336h234v-23z" />
    <glyph glyph-name="uni0146" unicode="&#x146;" horiz-adv-x="1429" 
d="M821 1059q226 0 344.5 -112t118.5 -324v-623h-242v575q0 308 -294 308q-163 0 -260 -91t-97 -249v-543h-241v1034h200v-106l-14 -92h20q60 102 178 162.5t287 60.5zM498 -496v25l125 336h233v-23l-178 -338h-180z" />
    <glyph glyph-name="Ncaron" unicode="&#x147;" horiz-adv-x="1800" 
d="M1090 1853h161v-22l-278 -299h-148l-278 301v20h166l159 -170l17 -28h24l17 28zM424 0h-229v1413h270l833 -1005l43 -95h45l-10 103v997h230v-1413h-271l-833 1006l-43 94h-45l10 -103v-997z" />
    <glyph glyph-name="ncaron" unicode="&#x148;" horiz-adv-x="1429" 
d="M1057 1452l-279 -299h-147l-279 301v21h166l160 -170l16 -29h25l16 29l160 170h162v-23zM821 1059q226 0 344.5 -112t118.5 -324v-623h-242v575q0 308 -294 308q-163 0 -260 -91t-97 -249v-543h-241v1034h200v-106l-14 -92h20q60 102 178 162.5t287 60.5z" />
    <glyph glyph-name="Eng" unicode="&#x14a;" horiz-adv-x="1800" 
d="M1376 416v997h230v-1352q0 -442 -484 -442q-169 0 -288 45v193q107 -52 237 -52q258 0 293 195h-27l-835 1006l-43 94h-45l10 -103v-997h-229v1413h270l833 -1005l43 -95h45z" />
    <glyph glyph-name="eng" unicode="&#x14b;" horiz-adv-x="1429" 
d="M821 1059q226 0 344.5 -112t118.5 -324v-574q0 -442 -438 -442q-125 0 -238 43v184q90 -43 189 -43q247 0 247 254l-2 530q0 308 -294 308q-163 0 -260 -91t-97 -249v-543h-241v1034h200v-106l-14 -92h20q60 102 178 162.5t287 60.5z" />
    <glyph glyph-name="Omacron" unicode="&#x14c;" horiz-adv-x="1861" 
d="M1245 1602h-627v147h627v-147zM934 -25q-373 0 -584 199q-213 201 -213 531q0 332 215 532q216 201 582 201q364 0 577 -201t213 -532q0 -332 -211 -531t-579 -199zM934 174q248 0 385 143q139 145 139 390t-141 389q-139 145 -383 145q-243 0 -387 -147
q-144 -144 -144 -389q0 -244 144 -388q143 -143 387 -143z" />
    <glyph glyph-name="omacron" unicode="&#x14d;" horiz-adv-x="1462" 
d="M1044 1223h-626v147h626v-147zM735 1059q285 0 453 -148q168 -146 168 -393q0 -246 -166 -393q-165 -148 -455 -148q-288 0 -459 148q-167 145 -167 393t167 393q171 148 459 148zM1118 518q0 172 -102.5 274.5t-280.5 102.5t-283.5 -104t-105.5 -273q0 -171 105.5 -274
t283.5 -103q176 0 279.5 104t103.5 273z" />
    <glyph glyph-name="Ohungarumlaut" unicode="&#x150;" horiz-adv-x="1861" 
d="M752 1538h-142v27l207 288h193v-24zM1106 1538h-164v27l326 288h207v-24zM934 -25q-373 0 -584 199q-213 201 -213 531q0 332 215 532q216 201 582 201q364 0 577 -201t213 -532q0 -332 -211 -531t-579 -199zM934 174q248 0 385 143q139 145 139 390t-141 389
q-139 145 -383 145q-243 0 -387 -147q-144 -144 -144 -389q0 -244 144 -388q143 -143 387 -143z" />
    <glyph glyph-name="ohungarumlaut" unicode="&#x151;" horiz-adv-x="1462" 
d="M553 1159h-141v27l206 289h193v-25zM907 1159h-164v27l326 289h207v-25zM735 1059q285 0 453 -148q168 -146 168 -393q0 -246 -166 -393q-165 -148 -455 -148q-288 0 -459 148q-167 145 -167 393t167 393q171 148 459 148zM1118 518q0 172 -102.5 274.5t-280.5 102.5
t-283.5 -104t-105.5 -273q0 -171 105.5 -274t283.5 -103q176 0 279.5 104t103.5 273z" />
    <glyph glyph-name="OE" unicode="&#x152;" horiz-adv-x="2566" 
d="M1610 635v-451h850v-184h-1035v203l29 98h-24q-75 -149 -225 -237.5t-359 -88.5q-321 0 -516 201q-193 202 -193 529q0 331 193 530q194 203 516 203q210 0 361 -89t223 -237h24l-29 98v203h1024v-184h-839v-424h712v-170h-712zM883 174q213 0 340 145q125 143 125 388
q0 246 -125 389q-127 145 -340 145q-219 0 -351 -147q-129 -147 -129 -389q0 -244 132 -388q131 -143 348 -143z" />
    <glyph glyph-name="oe" unicode="&#x153;" horiz-adv-x="2181" 
d="M2068 524v-41h-837q7 -176 91 -270t228 -94q211 0 281 196h227q-42 -160 -172.5 -249t-329.5 -89q-163 0 -285 65t-184 183v54h-20q-43 -143 -158 -223.5t-280 -80.5q-232 0 -377 154q-143 152 -143 391q0 243 149 389q151 148 401 148q152 0 268.5 -62.5t178.5 -173.5
v-53h18q45 133 163 212t286 79q226 0 360 -146q135 -144 135 -389zM1544 918q-127 0 -207 -81t-100 -229h612q-17 144 -97 227t-208 83zM997 516q0 170 -86.5 273.5t-236.5 103.5q-152 0 -242 -103t-90 -272q0 -167 90.5 -272t241.5 -105q150 0 236.5 103.5t86.5 271.5z" />
    <glyph glyph-name="Racute" unicode="&#x154;" horiz-adv-x="1634" 
d="M1171 1853v-24l-356 -291h-178v27l293 288h241zM1470 311v-155q0 -97 33 -123v-33h-260q-39 39 -39 129v160q0 145 -67 208.5t-232 63.5l-456 -2v-559h-254v1413h774q256 0 387 -98.5t131 -280.5q0 -118 -72 -212t-186 -120l-84 7v-27q166 -18 245.5 -104.5t79.5 -266.5z
M449 737h434q161 0 249.5 69t88.5 177q0 248 -338 248h-434v-494z" />
    <glyph glyph-name="racute" unicode="&#x155;" horiz-adv-x="991" 
d="M827 1475v-25l-356 -291h-178v27l293 289h241zM745 1059q108 0 193 -31v-213q-110 35 -201 35q-165 0 -255.5 -101t-90.5 -284v-465h-241v1034h202v-100l-16 -117h20q46 112 145.5 177t243.5 65z" />
    <glyph glyph-name="uni0156" unicode="&#x156;" horiz-adv-x="1634" 
d="M1470 311v-155q0 -97 33 -123v-33h-260q-39 39 -39 129v160q0 145 -67 208.5t-232 63.5l-456 -2v-559h-254v1413h774q256 0 387 -98.5t131 -280.5q0 -118 -72 -212t-186 -120l-84 7v-27q166 -18 245.5 -104.5t79.5 -266.5zM449 737h434q161 0 249.5 69t88.5 177
q0 248 -338 248h-434v-494zM608 -496v25l125 336h234v-23l-179 -338h-180z" />
    <glyph glyph-name="uni0157" unicode="&#x157;" horiz-adv-x="991" 
d="M745 1059q108 0 193 -31v-213q-110 35 -201 35q-165 0 -255.5 -101t-90.5 -284v-465h-241v1034h202v-100l-16 -117h20q46 112 145.5 177t243.5 65zM25 -496v25l125 336h233v-23l-178 -338h-180z" />
    <glyph glyph-name="Rcaron" unicode="&#x158;" horiz-adv-x="1634" 
d="M1167 1831l-278 -299h-148l-278 301v20h166l159 -170l17 -28h24l17 28l160 170h161v-22zM1470 311v-155q0 -97 33 -123v-33h-260q-39 39 -39 129v160q0 145 -67 208.5t-232 63.5l-456 -2v-559h-254v1413h774q256 0 387 -98.5t131 -280.5q0 -118 -72 -212t-186 -120l-84 7
v-27q166 -18 245.5 -104.5t79.5 -266.5zM449 737h434q161 0 249.5 69t88.5 177q0 248 -338 248h-434v-494z" />
    <glyph glyph-name="rcaron" unicode="&#x159;" horiz-adv-x="991" 
d="M821 1452l-278 -299h-148l-278 301v21h166l159 -170l17 -29h24l17 29l159 170h162v-23zM745 1059q108 0 193 -31v-213q-110 35 -201 35q-165 0 -255.5 -101t-90.5 -284v-465h-241v1034h202v-100l-16 -117h20q46 112 145.5 177t243.5 65z" />
    <glyph glyph-name="Sacute" unicode="&#x15a;" horiz-adv-x="1601" 
d="M799 1538h-178v27l292 288h242v-24zM815 -18q-612 0 -692 411h260q77 -246 446 -246q179 0 285.5 66t106.5 180q0 181 -285 225l-363 52q-409 62 -409 358q0 191 166.5 300.5t470.5 109.5q279 0 446.5 -102t204.5 -296h-260q-70 234 -399 234q-170 0 -268.5 -60
t-98.5 -161q0 -147 236 -181l364 -55q241 -38 353 -133t112 -260q0 -205 -179 -323.5t-497 -118.5z" />
    <glyph glyph-name="sacute" unicode="&#x15b;" horiz-adv-x="1327" 
d="M645 1159h-178v27l293 289h241v-25zM655 -25q-263 1 -394.5 78t-166.5 248h230q67 -178 340 -178q142 0 225.5 45.5t83.5 124.5q0 119 -225 143l-291 37q-162 20 -249 86.5t-87 171.5q0 150 140.5 239t389.5 89q484 0 537 -314h-232q-46 166 -321 166
q-136 0 -213.5 -39.5t-77.5 -105.5q0 -94 207 -115l276 -33q198 -23 295 -93t97 -193q-2 -162 -154 -259.5t-410 -97.5z" />
    <glyph glyph-name="Scedilla" unicode="&#x15e;" horiz-adv-x="1601" 
d="M1491 424q0 -195 -161 -311.5t-451 -128.5l-91 -129h66q114 0 172.5 -42.5t58.5 -121.5q0 -94 -81.5 -144.5t-231.5 -50.5q-123 0 -217 23v108q89 -28 215 -28q166 0 166 90q0 73 -129 73h-197v15l144 207q-554 18 -631 409h260q77 -246 446 -246q179 0 285.5 66
t106.5 180q0 181 -285 225l-363 52q-409 62 -409 358q0 191 166.5 300.5t470.5 109.5q279 0 446.5 -102t204.5 -296h-260q-70 234 -399 234q-170 0 -268.5 -60t-98.5 -161q0 -147 236 -181l364 -55q241 -38 353 -133t112 -260z" />
    <glyph glyph-name="scedilla" unicode="&#x15f;" horiz-adv-x="1327" 
d="M1219 332q-2 -153 -134.5 -248t-363.5 -107l-86 -122h65q114 0 173 -42.5t59 -121.5q0 -93 -82 -144t-232 -51q-123 0 -217 23v108q89 -28 215 -28q166 0 166 90q0 73 -129 73h-196v15l139 200q-231 7 -348.5 84.5t-153.5 239.5h230q67 -178 340 -178q142 0 225.5 45.5
t83.5 124.5q0 119 -225 143l-291 37q-162 20 -249 86.5t-87 171.5q0 150 140.5 239t389.5 89q484 0 537 -314h-232q-46 166 -321 166q-136 0 -213.5 -39.5t-77.5 -105.5q0 -94 207 -115l276 -33q198 -23 295 -93t97 -193z" />
    <glyph glyph-name="Scaron" unicode="&#x160;" horiz-adv-x="1601" 
d="M987 1853h162v-22l-279 -299h-147l-279 301v20h166l160 -170l16 -28h25l16 28zM815 -18q-612 0 -692 411h260q77 -246 446 -246q179 0 285.5 66t106.5 180q0 181 -285 225l-363 52q-409 62 -409 358q0 191 166.5 300.5t470.5 109.5q279 0 446.5 -102t204.5 -296h-260
q-70 234 -399 234q-170 0 -268.5 -60t-98.5 -161q0 -147 236 -181l364 -55q241 -38 353 -133t112 -260q0 -205 -179 -323.5t-497 -118.5z" />
    <glyph glyph-name="scaron" unicode="&#x161;" horiz-adv-x="1327" 
d="M836 1475h161v-23l-278 -299h-148l-278 301v21h166l159 -170l17 -29h24l17 29zM655 -25q-263 1 -394.5 78t-166.5 248h230q67 -178 340 -178q142 0 225.5 45.5t83.5 124.5q0 119 -225 143l-291 37q-162 20 -249 86.5t-87 171.5q0 150 140.5 239t389.5 89q484 0 537 -314
h-232q-46 166 -321 166q-136 0 -213.5 -39.5t-77.5 -105.5q0 -94 207 -115l276 -33q198 -23 295 -93t97 -193q-2 -162 -154 -259.5t-410 -97.5z" />
    <glyph glyph-name="uni0162" unicode="&#x162;" horiz-adv-x="1466" 
d="M856 1210v-1210h-63l-84 -113h75q96 0 146.5 -37t50.5 -104q0 -82 -73.5 -126t-207.5 -44q-121 0 -215 23l-2 98q83 -27 209 -27q158 0 158 70q0 57 -109 57h-188v29l125 174h-66v1210h-544v203h1331v-203h-543z" />
    <glyph glyph-name="uni0163" unicode="&#x163;" horiz-adv-x="1110" 
d="M709 -23h-11l-86 -122h66q114 0 172.5 -42.5t58.5 -121.5q0 -94 -81.5 -144.5t-231.5 -50.5q-123 0 -217 23v108q89 -28 215 -28q166 0 166 90q0 73 -129 73h-197v15l148 213q-281 53 -281 364q2 29 2 125v395h-242v160h240v297h244v-297h446v-160h-446v-387v-106
q0 -217 237 -217q99 0 217 31v-181q-130 -37 -290 -37z" />
    <glyph glyph-name="Tcaron" unicode="&#x164;" horiz-adv-x="1466" 
d="M1079 1831l-278 -299h-148l-278 301v20h166l159 -170l17 -28h24l17 28l160 170h161v-22zM68 1413h1331v-203h-543v-1210h-244v1210h-544v203z" />
    <glyph glyph-name="tcaron" unicode="&#x165;" horiz-adv-x="1110" 
d="M893 676h-145v20l63 178h-266v-387v-106q0 -217 237 -217q99 0 217 31v-181q-130 -37 -290 -37q-408 0 -408 377q2 29 2 125v395h-242v160h240v297h244v-297h522v-20z" />
    <glyph glyph-name="Tbar" unicode="&#x166;" horiz-adv-x="1466" 
d="M1399 1413v-203h-543v-471h330v-159h-330v-580h-244v580h-331v159h331v471h-544v203h1331z" />
    <glyph glyph-name="tbar" unicode="&#x167;" horiz-adv-x="1110" 
d="M782 164q99 0 217 31v-181q-130 -37 -290 -37q-408 0 -408 377q2 29 2 125v10h-192v146h192v239h-242v160h240v297h244v-297h446v-160h-446v-239h346v-146h-346v-2v-106q0 -217 237 -217z" />
    <glyph glyph-name="Umacron" unicode="&#x16a;" horiz-adv-x="1761" 
d="M1190 1602h-627v147h627v-147zM881 -25q-328 0 -507 183t-179 526v729h256v-743q0 -236 110.5 -355.5t321.5 -119.5t322.5 119.5t111.5 355.5v743h252v-729q0 -343 -178.5 -526t-509.5 -183z" />
    <glyph glyph-name="umacron" unicode="&#x16b;" horiz-adv-x="1402" 
d="M383 1370h627v-147h-627v147zM1016 494v542h239v-1036h-200v106l16 95h-18q-130 -226 -455 -226q-219 0 -333.5 113.5t-114.5 327.5v620h241v-575q0 -309 281 -309q157 0 250.5 92t93.5 250z" />
    <glyph glyph-name="Uring" unicode="&#x16e;" horiz-adv-x="1761" 
d="M639 1731q0 98 67 159.5t173 61.5q105 0 171 -62t66 -159q0 -100 -65.5 -162t-171.5 -62t-173 62t-67 162zM1008 1731q0 57 -35 93t-94 36t-94 -36t-35 -93q0 -58 35 -93.5t94 -35.5t94 35.5t35 93.5zM881 -25q-328 0 -507 183t-179 526v729h256v-743
q0 -236 110.5 -355.5t321.5 -119.5t322.5 119.5t111.5 355.5v743h252v-729q0 -343 -178.5 -526t-509.5 -183z" />
    <glyph glyph-name="uring" unicode="&#x16f;" horiz-adv-x="1402" 
d="M457 1352q0 98 66.5 159.5t172.5 61.5q105 0 171.5 -62t66.5 -159q0 -100 -66 -162t-172 -62t-172.5 62t-66.5 162zM567 1352q0 -58 35 -93.5t94 -35.5t94 35.5t35 93.5q0 57 -35 93t-94 36t-94 -36t-35 -93zM1016 494v542h239v-1036h-200v106l16 95h-18
q-130 -226 -455 -226q-219 0 -333.5 113.5t-114.5 327.5v620h241v-575q0 -309 281 -309q157 0 250.5 92t93.5 250z" />
    <glyph glyph-name="Uhungarumlaut" unicode="&#x170;" horiz-adv-x="1761" 
d="M698 1538h-141v27l207 288h192v-24zM1053 1538h-164v27l325 288h207v-24zM881 -25q-328 0 -507 183t-179 526v729h256v-743q0 -236 110.5 -355.5t321.5 -119.5t322.5 119.5t111.5 355.5v743h252v-729q0 -343 -178.5 -526t-509.5 -183z" />
    <glyph glyph-name="uhungarumlaut" unicode="&#x171;" horiz-adv-x="1402" 
d="M776 1475v-25l-258 -291h-141v27l207 289h192zM872 1159h-163v27l325 289h207v-25zM1016 494v542h239v-1036h-200v106l16 95h-18q-130 -226 -455 -226q-219 0 -333.5 113.5t-114.5 327.5v620h241v-575q0 -309 281 -309q157 0 250.5 92t93.5 250z" />
    <glyph glyph-name="Uogonek" unicode="&#x172;" horiz-adv-x="1761" 
d="M1317 670v743h252v-729q0 -544 -463 -682q-248 -70 -248 -172q0 -82 119 -82q62 0 129 25v-125q-69 -29 -168 -29q-115 0 -184.5 46t-69.5 126q0 71 59.5 126.5t163.5 86.5v31l-159 -47q-270 35 -411.5 212.5t-141.5 483.5v729h256v-743q0 -236 110.5 -355.5
t321.5 -119.5t322.5 119.5t111.5 355.5z" />
    <glyph glyph-name="uogonek" unicode="&#x173;" horiz-adv-x="1402" 
d="M1128 -252q62 0 129 25v-129q-69 -29 -167 -29q-115 0 -184.5 46t-69.5 126q0 139 223 221v96l12 97h-18q-130 -226 -455 -226q-219 0 -333.5 113.5t-114.5 327.5v620h241v-575q0 -309 281 -309q157 0 250.5 92t93.5 250v542h239v-1038q-105 -19 -175 -66t-70 -102
q0 -82 118 -82z" />
    <glyph glyph-name="Wcircumflex" unicode="&#x174;" horiz-adv-x="2521" 
d="M1090 1540h-162v21l278 301h148l278 -301v-21h-166l-159 168l-17 29h-24l-17 -29zM854 0h-328l-469 1380v33h248l365 -1065l14 -78h43l12 78l365 1065h317l363 -1065l12 -78h45l12 78l367 1065h244v-31l-469 -1382h-340l-365 1061l-14 76h-43l-12 -76z" />
    <glyph glyph-name="wcircumflex" unicode="&#x175;" horiz-adv-x="2015" 
d="M819 1161h-162v21l279 301h147l279 -301v-21h-166l-160 168l-16 29h-25l-16 -29zM711 0h-277l-377 1006v28h230l270 -737l10 -59h35l8 59l271 737h266l268 -737l10 -59h33l10 59l271 737h219v-26l-369 -1008h-286l-271 731l-10 60h-31l-10 -60z" />
    <glyph glyph-name="Ycircumflex" unicode="&#x176;" horiz-adv-x="1626" 
d="M801 1737l-17 -29l-159 -168h-162v21l278 301h148l278 -301v-21h-166l-159 168l-17 29h-24zM1317 1413h252v-31l-627 -862v-520h-256v520l-629 860v33h260l455 -604l27 -74h37l26 74z" />
    <glyph glyph-name="ycircumflex" unicode="&#x177;" horiz-adv-x="1363" 
d="M494 1161h-162v21l278 301h148l278 -301v-21h-166l-159 168l-17 29h-24l-17 -29zM338 -377q-135 0 -236 39v191q113 -46 228 -46q139 0 215 107l37 66l41 16v27h-97l-469 983v28h238l360 -770l13 -51h34l13 51l360 770h232v-24l-514 -1082q-72 -159 -181 -232t-274 -73z
" />
    <glyph glyph-name="Ydieresis" unicode="&#x178;" horiz-adv-x="1626" 
d="M539 1792h170v-252h-170v252zM918 1792h169v-252h-169v252zM1317 1413h252v-31l-627 -862v-520h-256v520l-629 860v33h260l455 -604l27 -74h37l26 74z" />
    <glyph glyph-name="Zacute" unicode="&#x179;" horiz-adv-x="1456" 
d="M727 1538h-178v27l293 288h241v-24zM1352 0h-1268v174l856 969l86 49v31l-117 -21h-819v211h1253v-186l-854 -959l-86 -49v-29l117 21h832v-211z" />
    <glyph glyph-name="zacute" unicode="&#x17a;" horiz-adv-x="1234" 
d="M600 1159h-178v27l293 289h241v-25zM1120 0h-1003v152l616 663l66 31v24l-76 -6h-596v170h989v-151l-618 -664l-64 -29v-26l74 8h612v-172z" />
    <glyph glyph-name="Zdotaccent" unicode="&#x17b;" horiz-adv-x="1456" 
d="M854 1536h-244v291h244v-291zM1352 0h-1268v174l856 969l86 49v31l-117 -21h-819v211h1253v-186l-854 -959l-86 -49v-29l117 21h832v-211z" />
    <glyph glyph-name="zdotaccent" unicode="&#x17c;" horiz-adv-x="1234" 
d="M727 1157h-244v291h244v-291zM1120 0h-1003v152l616 663l66 31v24l-76 -6h-596v170h989v-151l-618 -664l-64 -29v-26l74 8h612v-172z" />
    <glyph glyph-name="Zcaron" unicode="&#x17d;" horiz-adv-x="1456" 
d="M918 1853h161v-22l-278 -299h-148l-278 301v20h166l159 -170l17 -28h24l17 28zM1352 0h-1268v174l856 969l86 49v31l-117 -21h-819v211h1253v-186l-854 -959l-86 -49v-29l117 21h832v-211z" />
    <glyph glyph-name="zcaron" unicode="&#x17e;" horiz-adv-x="1234" 
d="M791 1475h161v-23l-278 -299h-148l-278 301v21h166l159 -170l17 -29h24l17 29zM1120 0h-1003v152l616 663l66 31v24l-76 -6h-596v170h989v-151l-618 -664l-64 -29v-26l74 8h612v-172z" />
    <glyph glyph-name="florin" unicode="&#x192;" horiz-adv-x="1202" 
d="M940 1284q-109 0 -160 -54t-51 -169v-236h377v-159h-377v-271q0 -215 -98.5 -317.5t-308.5 -102.5q-128 0 -234 33v189q98 -31 188 -31q109 0 159 53.5t50 169.5v277h-376v159h376v230q0 212 100 315t310 103q113 0 231 -31v-191q-85 33 -186 33z" />
    <glyph glyph-name="uni0218" unicode="&#x218;" horiz-adv-x="1601" 
d="M815 -18q-612 0 -692 411h260q77 -246 446 -246q179 0 285.5 66t106.5 180q0 181 -285 225l-363 52q-409 62 -409 358q0 191 166.5 300.5t470.5 109.5q279 0 446.5 -102t204.5 -296h-260q-70 234 -399 234q-170 0 -268.5 -60t-98.5 -161q0 -147 236 -181l364 -55
q241 -38 353 -133t112 -260q0 -205 -179 -323.5t-497 -118.5zM770 -496h-180v25l125 336h233v-23z" />
    <glyph glyph-name="uni0219" unicode="&#x219;" horiz-adv-x="1327" 
d="M655 -25q-263 1 -394.5 78t-166.5 248h230q67 -178 340 -178q142 0 225.5 45.5t83.5 124.5q0 119 -225 143l-291 37q-162 20 -249 86.5t-87 171.5q0 150 140.5 239t389.5 89q484 0 537 -314h-232q-46 166 -321 166q-136 0 -213.5 -39.5t-77.5 -105.5q0 -94 207 -115
l276 -33q198 -23 295 -93t97 -193q-2 -162 -154 -259.5t-410 -97.5zM618 -496h-180v25l125 336h234v-23z" />
    <glyph glyph-name="uni021A" unicode="&#x21a;" horiz-adv-x="1466" 
d="M68 1210v203h1331v-203h-543v-1210h-244v1210h-544zM520 -496v25l125 336h234v-23l-179 -338h-180z" />
    <glyph glyph-name="uni021B" unicode="&#x21b;" horiz-adv-x="1110" 
d="M782 164q99 0 217 31v-181q-130 -37 -290 -37q-408 0 -408 377q2 29 2 125v395h-242v160h240v297h244v-297h446v-160h-446v-387v-106q0 -217 237 -217zM416 -496v25l125 336h233v-23l-178 -338h-180z" />
    <glyph glyph-name="circumflex" unicode="&#x2c6;" horiz-adv-x="1228" 
d="M303 1161h-162v21l279 301h147l279 -301v-21h-166l-160 168l-16 29h-25l-16 -29z" />
    <glyph glyph-name="caron" unicode="&#x2c7;" horiz-adv-x="1228" 
d="M659 1475h162v-23l-278 -299h-148l-278 301v21h166l159 -170l17 -29h24l17 29z" />
    <glyph glyph-name="breve" unicode="&#x2d8;" horiz-adv-x="1228" 
d="M463 1143q-180 0 -281 77t-102 218h139q2 -82 65 -127t179 -45q114 0 177 46t65 126h139q-1 -140 -102 -217.5t-279 -77.5z" />
    <glyph glyph-name="dotaccent" unicode="&#x2d9;" horiz-adv-x="448" 
d="M346 1157h-244v291h244v-291z" />
    <glyph glyph-name="ring" unicode="&#x2da;" horiz-adv-x="1228" 
d="M172 1352q0 98 67 159.5t173 61.5q105 0 171 -62t66 -159q0 -100 -65.5 -162t-171.5 -62t-173 62t-67 162zM541 1352q0 57 -35 93t-94 36t-94 -36t-35 -93q0 -58 35 -93.5t94 -35.5t94 35.5t35 93.5z" />
    <glyph glyph-name="ogonek" unicode="&#x2db;" horiz-adv-x="1228" 
d="M457 -381q-115 0 -185.5 46t-70.5 126q0 74 70 131t180 78h172q-103 -21 -175.5 -68.5t-72.5 -101.5q0 -38 33 -60t88 -22q60 0 127 25v-125q-69 -29 -166 -29z" />
    <glyph glyph-name="tilde" unicode="&#x2dc;" horiz-adv-x="1228" 
d="M643 1171q-78 0 -170 56q-86 57 -129 57q-46 0 -70 -28.5t-22 -79.5h-115q-12 109 44.5 179t166.5 70q74 0 156 -55q85 -55 127 -55q43 0 66 29.5t18 76.5h127q11 -111 -42 -180.5t-157 -69.5z" />
    <glyph glyph-name="hungarumlaut" unicode="&#x2dd;" horiz-adv-x="1228" 
d="M229 1159h-139v27l207 289h192v-25zM586 1159h-164v27l323 289h207v-25z" />
    <glyph glyph-name="gravecomb" unicode="&#x300;" 
d="M-102 1161h-181l-350 289v25h238l293 -291v-23z" />
    <glyph glyph-name="acutecomb" unicode="&#x301;" 
d="M-471 1159h-178v27l293 289h241v-25z" />
    <glyph glyph-name="uni0302" unicode="&#x302;" 
d="M-637 1161h-162v21l279 301h147l279 -301v-21h-166l-160 168l-16 29h-25l-16 -29z" />
    <glyph glyph-name="tildecomb" unicode="&#x303;" 
d="M-287 1171q-81 0 -170 56q-89 57 -131 57q-46 0 -70 -28.5t-22 -79.5h-115q-12 109 44.5 179t166.5 70q73 0 158 -55q82 -55 125 -55t66 29.5t18 76.5h127q11 -111 -42 -180.5t-155 -69.5z" />
    <glyph glyph-name="uni0304" unicode="&#x304;" 
d="M-102 1223h-627v147h627v-147z" />
    <glyph glyph-name="uni0306" unicode="&#x306;" 
d="M-786 1438h139q2 -82 64 -127t177 -45q114 0 178 46t66 126h137q0 -140 -101 -217.5t-280 -77.5t-279.5 77.5t-100.5 217.5z" />
    <glyph glyph-name="uni0308" unicode="&#x308;" 
d="M-481 1161h-170v252h170v-252zM-102 1161h-170v252h170v-252z" />
    <glyph glyph-name="uni030A" unicode="&#x30a;" 
d="M-549 1352q0 98 67 159.5t173 61.5q105 0 171 -62t66 -159q0 -100 -65.5 -162t-171.5 -62t-173 62t-67 162zM-180 1352q0 57 -35 93t-94 36t-94 -36t-35 -93q0 -58 35 -93.5t94 -35.5t94 35.5t35 93.5z" />
    <glyph glyph-name="uni030B" unicode="&#x30b;" 
d="M-829 1159h-142v27l207 289h193v-25zM-475 1159h-164v27l326 289h207v-25z" />
    <glyph glyph-name="uni030C" unicode="&#x30c;" 
d="M-256 1475h162v-23l-279 -299h-147l-279 301v21h166l160 -170l16 -29h25l16 29z" />
    <glyph glyph-name="uni0312" unicode="&#x312;" 
d="M-420 1159h-229v27l368 289h179v-25z" />
    <glyph glyph-name="uni0326" unicode="&#x326;" 
d="M-397 -496h-181v25l125 336h234v-23z" />
    <glyph glyph-name="uni0327" unicode="&#x327;" 
d="M-377 -145h66q114 0 172.5 -42.5t58.5 -121.5q0 -94 -81.5 -144.5t-231.5 -50.5q-123 0 -217 23v108q89 -28 215 -28q166 0 166 90q0 73 -129 73h-197v15l180 258h125z" />
    <glyph glyph-name="uni0394" unicode="&#x394;" horiz-adv-x="1753" 
d="M1696 0h-1639v31l650 1382h340l649 -1380v-33zM367 223v-33l86 25h845l86 -25v33l-57 51l-418 875l-16 68h-35l-16 -68l-418 -875z" />
    <glyph glyph-name="uni03A9" unicode="&#x3a9;" horiz-adv-x="1787" 
d="M1163 209v-27l207 17h262v-199h-633v311q186 32 291 156.5t105 310.5q0 213 -135 342q-134 131 -365 131q-232 0 -367 -129q-133 -130 -133 -344q0 -186 106 -310.5t292 -156.5v-311h-637v199h264l207 -17v27q-208 35 -348 190q-142 157 -142 398q0 285 205 460
q206 179 553 179t553 -179q205 -175 205 -460q0 -241 -142 -398q-137 -155 -348 -190z" />
    <glyph glyph-name="uni03BC" unicode="&#x3bc;" horiz-adv-x="1402" 
d="M1016 494v542h239v-1036h-200v106l16 95h-24q-111 -226 -404 -226q-149 0 -252 74v-405h-241v1392h241v-575q0 -309 283 -309q156 0 249 91.5t93 250.5z" />
    <glyph glyph-name="pi" unicode="&#x3c0;" horiz-adv-x="1509" 
d="M1315 156q63 0 137 22v-174q-102 -29 -201 -29q-157 0 -237 75t-78 218v580h-457v-848h-229v848h-240v186h1430v-186h-275v-543q-3 -149 150 -149z" />
    <glyph glyph-name="Wgrave" unicode="&#x1e80;" horiz-adv-x="2521" 
d="M1413 1540h-180l-350 289v24h237l293 -290v-23zM854 0h-328l-469 1380v33h248l365 -1065l14 -78h43l12 78l365 1065h317l363 -1065l12 -78h45l12 78l367 1065h244v-31l-469 -1382h-340l-365 1061l-14 76h-43l-12 -76z" />
    <glyph glyph-name="wgrave" unicode="&#x1e81;" horiz-adv-x="2015" 
d="M1143 1161h-180l-351 289v25h238l293 -291v-23zM711 0h-277l-377 1006v28h230l270 -737l10 -59h35l8 59l271 737h266l268 -737l10 -59h33l10 59l271 737h219v-26l-369 -1008h-286l-271 731l-10 60h-31l-10 -60z" />
    <glyph glyph-name="Wacute" unicode="&#x1e82;" horiz-adv-x="2521" 
d="M1274 1538h-178v27l293 288h241v-24zM854 0h-328l-469 1380v33h248l365 -1065l14 -78h43l12 78l365 1065h317l363 -1065l12 -78h45l12 78l367 1065h244v-31l-469 -1382h-340l-365 1061l-14 76h-43l-12 -76z" />
    <glyph glyph-name="wacute" unicode="&#x1e83;" horiz-adv-x="2015" 
d="M1004 1159h-179v27l293 289h242v-25zM711 0h-277l-377 1006v28h230l270 -737l10 -59h35l8 59l271 737h266l268 -737l10 -59h33l10 59l271 737h219v-26l-369 -1008h-286l-271 731l-10 60h-31l-10 -60z" />
    <glyph glyph-name="Wdieresis" unicode="&#x1e84;" horiz-adv-x="2521" 
d="M1176 1540h-170v252h170v-252zM1554 1540h-170v252h170v-252zM854 0h-328l-469 1380v33h248l365 -1065l14 -78h43l12 78l365 1065h317l363 -1065l12 -78h45l12 78l367 1065h244v-31l-469 -1382h-340l-365 1061l-14 76h-43l-12 -76z" />
    <glyph glyph-name="wdieresis" unicode="&#x1e85;" horiz-adv-x="2015" 
d="M905 1161h-170v252h170v-252zM1284 1161h-170v252h170v-252zM711 0h-277l-377 1006v28h230l270 -737l10 -59h35l8 59l271 737h266l268 -737l10 -59h33l10 59l271 737h219v-26l-369 -1008h-286l-271 731l-10 60h-31l-10 -60z" />
    <glyph glyph-name="uni1E9E" unicode="&#x1e9e;" horiz-adv-x="1781" 
d="M1016 823l188 6q467 -12 467 -393q0 -220 -168 -336q-167 -114 -403 -114q-488 0 -574 399h240q64 -199 342 -199q154 0 239 64.5t85 187.5q0 221 -349 221h-374v162l569 328q-145 86 -387 86q-221 0 -338 -96t-117 -281v-858h-241v842q0 592 696 592q207 0 373 -50
t262 -137v-153l-492 -240l-55 -39l29 12z" />
    <glyph glyph-name="Ygrave" unicode="&#x1ef2;" horiz-adv-x="1626" 
d="M948 1563v-23h-180l-350 289v24h237zM1317 1413h252v-31l-627 -862v-520h-256v520l-629 860v33h260l455 -604l27 -74h37l26 74z" />
    <glyph glyph-name="ygrave" unicode="&#x1ef3;" horiz-adv-x="1363" 
d="M817 1161h-180l-350 289v25h237l293 -291v-23zM338 -377q-135 0 -236 39v191q113 -46 228 -46q139 0 215 107l37 66l41 16v27h-97l-469 983v28h238l360 -770l13 -51h34l13 51l360 770h232v-24l-514 -1082q-72 -159 -181 -232t-274 -73z" />
    <glyph glyph-name="uni2009" unicode="&#x2009;" horiz-adv-x="362" 
 />
    <glyph glyph-name="endash" unicode="&#x2013;" horiz-adv-x="1277" 
d="M1102 430h-926v195h926v-195z" />
    <glyph glyph-name="emdash" unicode="&#x2014;" horiz-adv-x="1701" 
d="M1524 430h-1348v195h1348v-195z" />
    <glyph glyph-name="quoteleft" unicode="&#x2018;" horiz-adv-x="587" 
d="M461 1413v-33q-153 -94 -193 -243h105v-285h-248v213q0 108 53.5 201.5t149.5 146.5h133z" />
    <glyph glyph-name="quoteright" unicode="&#x2019;" horiz-adv-x="608" 
d="M195 1128v285h247v-211q0 -108 -53 -202t-149 -148h-134v33q149 88 193 243h-104z" />
    <glyph glyph-name="quotesinglbase" unicode="&#x201a;" horiz-adv-x="583" 
d="M166 0v285h248v-213q0 -110 -53 -202.5t-150 -145.5h-133v32q151 93 192 244h-104z" />
    <glyph glyph-name="quotedblleft" unicode="&#x201c;" horiz-adv-x="968" 
d="M125 864v213q0 110 53 202.5t150 145.5h133v-32q-153 -94 -193 -244h105v-285h-248zM842 1425v-32q-150 -91 -191 -244h105v-285h-248v213q0 110 52.5 202.5t148.5 145.5h133z" />
    <glyph glyph-name="quotedblright" unicode="&#x201d;" horiz-adv-x="989" 
d="M299 1128h-104v285h247v-211q0 -108 -53 -202t-149 -148h-134v33q149 88 193 243zM575 1128v285h248v-211q0 -110 -52 -202.5t-148 -147.5h-136v33q152 88 193 243h-105z" />
    <glyph glyph-name="quotedblbase" unicode="&#x201e;" horiz-adv-x="583" 
d="M166 0v285h248v-213q0 -110 -53 -202.5t-150 -145.5h-133v32q151 93 192 244h-104z" />
    <glyph glyph-name="dagger" unicode="&#x2020;" horiz-adv-x="1159" 
d="M688 0h-219l14 821l13 78v21l-72 -11l-293 -8v197l293 -8l72 -11v21l-17 53l-10 322h221l-12 -322l-14 -53v-21l71 11l293 8v-197l-293 8l-71 11v-21l12 -78z" />
    <glyph glyph-name="daggerdbl" unicode="&#x2021;" horiz-adv-x="1159" 
d="M690 0h-221l10 285l15 55v20l-72 -10l-291 -8v178l291 -8l72 -10v18l-13 60v315l13 59v19l-72 -10l-291 -9v179l291 -9l72 -10v21l-15 55l-10 285h221l-10 -285l-16 -55v-21l73 10l291 9v-179l-291 9l-73 10v-19l14 -59v-315l-14 -60v-18l73 10l291 8v-178l-291 8l-73 10
v-20l16 -55z" />
    <glyph glyph-name="bullet" unicode="&#x2022;" horiz-adv-x="733" 
d="M530 373q-62 -62 -163 -62q-102 0 -164 62q-62 65 -62 168q0 104 62 166q60 63 164 63q103 0 163 -63q62 -62 62 -166q0 -103 -62 -168z" />
    <glyph glyph-name="ellipsis" unicode="&#x2026;" horiz-adv-x="1560" 
d="M424 0h-248v285h250zM903 0h-248v285h250zM1382 0h-247v285h249z" />
    <glyph glyph-name="perthousand" unicode="&#x2030;" horiz-adv-x="2652" 
d="M76 1067q0 167 102 272q101 107 268 107q166 0 267 -107q102 -105 102 -272q0 -166 -102 -274q-102 -105 -267 -105q-166 0 -268 105t-102 274zM565 0h-164v53q-13 173 111 359q26 42 92 108q81 85 107 109q116 108 137 127q219 200 307 319q92 127 92 273v65h166v-53
q0 -110 -26 -194.5t-91 -172.5q-58 -76 -133 -151t-196 -185q-214 -190 -308 -315t-94 -276v-66zM446 834q97 0 155 62.5t58 170.5q0 106 -58 169.5t-155 63.5q-98 0 -157.5 -63.5t-59.5 -169.5t59.5 -169.5t157.5 -63.5zM1378 -18q-167 0 -268 104q-102 105 -102 274
q0 165 102 273q100 106 268 106q167 0 267 -106q102 -105 102 -273t-101.5 -273t-267.5 -105zM1837 360q0 168 102 273q100 106 269 106q166 0 266 -106q102 -105 102 -273q0 -166 -102 -274q-101 -104 -266 -104q-168 0 -269 104q-102 105 -102 274zM1591 358
q0 109 -57.5 171.5t-155.5 62.5t-156.5 -63t-58.5 -169t58.5 -169.5t156.5 -63.5t155.5 62.5t57.5 168.5zM2208 127q97 0 155 62.5t58 168.5q0 108 -58 171t-155 63q-98 0 -157.5 -63t-59.5 -169t59.5 -169.5t157.5 -63.5z" />
    <glyph glyph-name="guilsinglleft" unicode="&#x2039;" horiz-adv-x="790" 
d="M657 72h-34l-564 395v141l564 393h34v-172l-360 -264l-53 -22v-13l53 -18l360 -268v-172z" />
    <glyph glyph-name="guilsinglright" unicode="&#x203a;" horiz-adv-x="790" 
d="M168 72h-33v172l359 268l53 18v13l-53 22l-359 264v172h33l563 -393v-141z" />
    <glyph glyph-name="fraction" unicode="&#x2044;" horiz-adv-x="684" 
d="M-94 0h-168v37l1038 1376l168 -2v-35z" />
    <glyph glyph-name="uni2070" unicode="&#x2070;" horiz-adv-x="1339" 
d="M672 647q-255 0 -410 146q-151 148 -151 391q0 249 153 393q153 147 408 147t405 -147q152 -146 152 -393q0 -242 -152 -391q-152 -146 -405 -146zM672 813q160 0 251 100t91 273q0 171 -91.5 273t-250.5 102t-251.5 -102t-92.5 -273q0 -172 93 -272.5t251 -100.5z" />
    <glyph glyph-name="uni2074" unicode="&#x2074;" horiz-adv-x="1159" 
d="M989 1044h133v-161h-133v-217h-209v217h-721v145l617 674h227v-31l-557 -586l-61 -36v-21l86 16h409v193l72 84h137v-277z" />
    <glyph glyph-name="uni2075" unicode="&#x2075;" horiz-adv-x="1220" 
d="M379 1288h254q471 0 471 -303q0 -159 -135 -248q-134 -90 -346 -90q-215 0 -344.5 75t-161.5 222h209q62 -160 297 -160q118 0 194 54.5t76 144.5q0 86 -69 134t-201 48h-461v31l43 506h844v-148h-674l-21 -227l-47 -35v-20z" />
    <glyph glyph-name="uni2076" unicode="&#x2076;" horiz-adv-x="1263" 
d="M707 1329q198 0 323 -82q127 -80 127 -235q0 -163 -141 -262t-369 -99q-303 0 -438 170q-98 125 -98 346q0 267 140.5 412t407.5 145q196 0 325 -76.5t167 -217.5h-211q-56 151 -281 151q-319 0 -331 -332l-33 -51l-12 -55h16q43 85 149 135.5t259 50.5zM647 791
q148 0 233 58.5t85 156.5q0 92 -84 142t-226 50q-151 0 -235 -54t-84 -149q0 -92 87 -148t224 -56z" />
    <glyph glyph-name="uni2077" unicode="&#x2077;" horiz-adv-x="1056" 
d="M354 666h-215v32l570 801l57 37v23l-80 -19h-612v162h909v-135z" />
    <glyph glyph-name="uni2078" unicode="&#x2078;" horiz-adv-x="1234" 
d="M827 1249v-24q144 -23 220.5 -96.5t76.5 -176.5q0 -140 -132 -222.5t-378 -82.5q-241 0 -372 79t-131 216q0 82 51 144t151 90l80 -7v21q-117 23 -182.5 88t-65.5 156q0 129 121 209.5t350 80.5q220 0 344.5 -74.5t124.5 -199.5q0 -74 -49.5 -131.5t-130.5 -77.5z
M342 1430q0 -69 70.5 -111.5t199.5 -42.5q159 -5 232 70q53 55 30 121q-24 70 -118 101q-62 20 -144 17q-127 0 -198.5 -43t-71.5 -112zM905 963q0 83 -77.5 132.5t-215.5 49.5t-215.5 -49.5t-77.5 -132.5q0 -80 78.5 -126t214.5 -46t214.5 46t78.5 126z" />
    <glyph glyph-name="uni2079" unicode="&#x2079;" horiz-adv-x="1263" 
d="M1055 1554q98 -125 98 -346q0 -266 -140.5 -411.5t-408.5 -145.5q-195 0 -324 77t-167 218h211q56 -151 280 -151q320 0 332 331l33 52l12 55h-16q-43 -85 -148 -135.5t-260 -50.5q-199 0 -324 79q-127 83 -127 238q0 162 142 262q140 98 368 98q304 0 439 -170z
M608 1178q151 0 235.5 54t84.5 148q0 92 -87.5 148.5t-224.5 56.5q-148 0 -232.5 -58.5t-84.5 -156.5q0 -92 83.5 -142t225.5 -50z" />
    <glyph glyph-name="uni2080" unicode="&#x2080;" horiz-adv-x="1339" 
d="M672 -305q-257 0 -410 147q-151 145 -151 389q0 250 153 394q153 147 408 147t405 -147q152 -146 152 -394q0 -243 -152 -389q-150 -147 -405 -147zM672 -139q160 0 251 99.5t91 272.5q0 171 -91.5 273t-250.5 102t-251.5 -102t-92.5 -273q0 -172 93 -272t251 -100z" />
    <glyph glyph-name="uni2081" unicode="&#x2081;" horiz-adv-x="686" 
d="M332 678l12 72h193v-1037h-222v711h-256v168h160q55 0 78.5 18t34.5 68z" />
    <glyph glyph-name="uni2082" unicode="&#x2082;" horiz-adv-x="1239" 
d="M1112 -287h-979l2 142l582 372q50 32 86 60q80 64 80 151q0 79 -68 131t-176 52q-248 0 -289 -201h-227q29 172 163.5 262t362.5 90q208 0 330 -88q123 -88 123 -223q0 -97 -50.5 -166.5t-160.5 -138.5l-354 -240l-70 -33v-24l88 20h557v-166z" />
    <glyph glyph-name="uni2083" unicode="&#x2083;" horiz-adv-x="1236" 
d="M838 293v-23q139 -19 213.5 -86.5t74.5 -173.5q0 -144 -132.5 -229.5t-364.5 -85.5q-223 0 -357 81t-166 238h226q52 -172 297 -172q126 0 198 48.5t72 129.5q0 156 -266 156h-170v146h172q119 0 180.5 40t61.5 109q0 70 -67.5 113t-184.5 43q-231 0 -287 -158h-217
q85 303 510 303q217 0 340 -74.5t123 -205.5q0 -79 -49 -133.5t-132 -71.5z" />
    <glyph glyph-name="uni2084" unicode="&#x2084;" horiz-adv-x="1159" 
d="M989 92h133v-162h-133v-217h-209v217h-721v146l617 674h227v-31l-557 -586l-61 -37v-20l86 16h409v193l72 84h137v-277z" />
    <glyph glyph-name="uni2085" unicode="&#x2085;" horiz-adv-x="1220" 
d="M379 336h254q471 0 471 -303q0 -160 -135 -248q-134 -90 -346 -90q-215 0 -344.5 75t-161.5 222h209q62 -160 297 -160q118 0 194 54.5t76 144.5q0 86 -69 134t-201 48h-461v31l43 506h844v-148h-674l-21 -227l-47 -35v-21z" />
    <glyph glyph-name="uni2086" unicode="&#x2086;" horiz-adv-x="1263" 
d="M707 377q198 0 323 -82q127 -80 127 -236q0 -163 -141 -262q-140 -98 -369 -98q-303 0 -438 170q-98 125 -98 346q0 267 140.5 412t407.5 145q195 0 324.5 -77t167.5 -218h-211q-56 152 -281 152q-319 0 -331 -332l-33 -51l-12 -56h16q43 85 149 136t259 51zM647 -162
q148 0 233 58.5t85 156.5q0 92 -84 142.5t-226 50.5q-151 0 -235 -54t-84 -149q0 -92 87 -148.5t224 -56.5z" />
    <glyph glyph-name="uni2087" unicode="&#x2087;" horiz-adv-x="1056" 
d="M354 -287h-215v33l570 801l57 37v22l-80 -18h-612v162h909v-136z" />
    <glyph glyph-name="uni2088" unicode="&#x2088;" horiz-adv-x="1234" 
d="M827 297v-25q144 -23 220.5 -96t76.5 -176q0 -140 -132 -222.5t-378 -82.5q-241 0 -372 79t-131 216q0 82 51 143.5t151 89.5l80 -6v21q-117 23 -182.5 87.5t-65.5 155.5q0 129 121 210t350 81q220 0 344.5 -74.5t124.5 -199.5q0 -74 -49.5 -131.5t-130.5 -77.5zM342 477
q0 -68 70 -110.5t200 -42.5q159 -5 232 70q53 55 30 121q-24 70 -118 101q-62 20 -144 17q-127 0 -198.5 -43.5t-71.5 -112.5zM905 10q0 83 -78 133t-215 50t-215 -50t-78 -133q0 -80 78.5 -126t214.5 -46t214.5 46t78.5 126z" />
    <glyph glyph-name="uni2089" unicode="&#x2089;" horiz-adv-x="1263" 
d="M1057 602q96 -125 96 -344q0 -267 -141 -413t-408 -146q-195 0 -324 78t-167 219h211q59 -154 282 -154q317 0 332 332l31 51l12 56h-16q-43 -85 -148.5 -136t-259.5 -51q-197 0 -324 80q-127 83 -127 238q0 162 142 262q140 98 368 98q309 0 441 -170zM608 225
q151 0 235.5 54.5t84.5 148.5q0 92 -87.5 148.5t-224.5 56.5q-147 0 -232 -58.5t-85 -156.5q0 -92 83.5 -142.5t225.5 -50.5z" />
    <glyph glyph-name="Euro" unicode="&#x20ac;" horiz-adv-x="1796" 
d="M930 -23q-291 0 -494 134q-197 130 -262 358h-188v156h164q-1 12 -2 29t-2 28.5t-1 19.5q0 38 7 89h-166v153h196q68 231 265 362.5t483 131.5q294 0 489 -133q198 -133 250 -357h-221q-50 147 -188.5 233.5t-329.5 86.5q-168 0 -295.5 -73t-185.5 -194l-74 -51v-24
l106 18h660v-153h-768q-6 -27 -6 -86q0 -48 4 -80h770v-156h-660l-106 18v-24l74 -51q57 -119 186.5 -192t296.5 -73q190 0 329 86t189 230h219q-53 -222 -246 -354t-493 -132z" />
    <glyph glyph-name="trademark" unicode="&#x2122;" horiz-adv-x="1886" 
d="M330 1255h-240v158h631v-158h-225v-825h-166v825zM1300 655l195 758h279v-983h-146l4 715v117h-22l-11 -111l-204 -721h-221l-207 721l-13 113h-20v-119l4 -715h-143v983h278l195 -758l4 -75h24z" />
    <glyph glyph-name="oneeighth" unicode="&#x215b;" horiz-adv-x="2725" 
d="M537 1415v-1036h-222v711h-256v167h160q55 0 78.5 18t34.5 68l12 72h193zM1569 1413l168 -2v-35l-1037 -1376h-170v37zM2279 584v-25q144 -23 219.5 -96t75.5 -176q0 -140 -132 -222.5t-378 -82.5q-239 0 -370 78.5t-131 215.5q0 83 50.5 144.5t151.5 89.5l78 -6v20
q-117 23 -182.5 88t-65.5 156q0 129 122 210t351 81q219 0 344 -75t125 -200q0 -74 -49 -131.5t-133 -77.5zM1794 764q0 -69 69.5 -111.5t198.5 -42.5t200 43.5t71 112.5t-71.5 111.5t-199.5 42.5q-126 0 -197 -43.5t-71 -112.5zM2357 297q0 83 -77.5 132.5t-215.5 49.5
t-215 -49.5t-77 -132.5q0 -80 78 -126t214 -46t214.5 46t78.5 126z" />
    <glyph glyph-name="threeeighths" unicode="&#x215c;" horiz-adv-x="3094" 
d="M1126 676q0 -144 -132.5 -230t-364.5 -86q-223 0 -357 81.5t-166 238.5h226q52 -172 297 -172q126 0 198 48.5t72 129.5q0 156 -266 156h-170v145h172q119 0 180.5 40.5t61.5 109.5q0 70 -67.5 112.5t-184.5 42.5q-231 0 -287 -157h-217q85 303 510 303q216 0 339.5 -75
t123.5 -206q0 -79 -49 -133.5t-132 -71.5l-75 6v-22q139 -19 213.5 -86.5t74.5 -173.5zM1976 1413l168 -2v-35l-1038 -1376h-168v37zM2687 584v-25q144 -23 220.5 -96t76.5 -176q0 -140 -132 -222.5t-378 -82.5q-241 0 -372.5 78.5t-131.5 215.5q0 82 51.5 144t151.5 90
l80 -6v20q-117 23 -182.5 88t-65.5 156q0 129 121 210t350 81q220 0 344.5 -75t124.5 -200q0 -74 -49.5 -131.5t-130.5 -77.5zM2202 764q0 -69 70.5 -111.5t199.5 -42.5q160 -5 233 71q52 56 29 122q-25 69 -119 100q-62 20 -143 17q-127 0 -198.5 -43.5t-71.5 -112.5z
M2765 297q0 83 -77.5 132.5t-215.5 49.5t-215.5 -49.5t-77.5 -132.5q0 -80 78.5 -126t214.5 -46t214.5 46t78.5 126z" />
    <glyph glyph-name="fiveeighths" unicode="&#x215d;" horiz-adv-x="3033" 
d="M1104 698q0 -158 -135 -247q-136 -91 -346 -91q-215 0 -344.5 75t-161.5 222h209q62 -159 297 -159q119 0 194.5 54t75.5 144q0 86 -69.5 134.5t-200.5 48.5h-461v30l43 506h844v-147h-674l-21 -228l-47 -34v-21l72 16h254q471 0 471 -303zM1911 1413l168 -2v-35
l-1039 -1376h-168v37zM2619 584v-25q144 -23 220.5 -96t76.5 -176q0 -140 -132 -222.5t-378 -82.5q-241 0 -372 78.5t-131 215.5q0 82 51 144t151 90l80 -6v20q-118 23 -183 88t-65 156q0 129 121 210t350 81q220 0 344.5 -75t124.5 -200q0 -74 -49.5 -131.5t-130.5 -77.5z
M2134 764q0 -68 70.5 -111t197.5 -43q162 -5 235 71q53 55 29 122q-25 69 -120 100q-62 20 -142 17q-127 0 -198.5 -43.5t-71.5 -112.5zM2404 125q139 0 216 46t77 126q0 83 -77.5 132.5t-215.5 49.5t-215.5 -49.5t-77.5 -132.5q0 -80 78.5 -126t214.5 -46z" />
    <glyph glyph-name="seveneighths" unicode="&#x215e;" horiz-adv-x="2666" 
d="M74 1415h909v-135l-629 -901h-215v33l570 800l57 37v23l-80 -19h-612v162zM1587 1413l168 -2v-35l-1038 -1376h-168v37zM2296 584v-25q144 -23 220.5 -96t76.5 -176q0 -140 -132 -222.5t-378 -82.5q-241 0 -372.5 78.5t-131.5 215.5q0 82 51.5 144t151.5 90l80 -6v20
q-117 23 -182.5 88t-65.5 156q0 129 121 210t350 81q220 0 344.5 -75t124.5 -200q0 -74 -49.5 -131.5t-130.5 -77.5zM1810 764q0 -68 71 -111t200 -43q152 -6 228 67q56 54 37 119q-14 47 -67 78q-70 46 -198 46q-126 0 -198.5 -43.5t-72.5 -112.5zM2081 125q139 0 217 46
t78 126q0 83 -78.5 132.5t-216.5 49.5q-137 0 -214 -49.5t-77 -132.5q0 -80 77.5 -126t213.5 -46z" />
    <glyph glyph-name="arrowleft" unicode="&#x2190;" horiz-adv-x="1722" 
d="M664 793h909v-185h-909v-129h-31l-481 205v33l481 205h31v-129z" />
    <glyph glyph-name="arrowup" unicode="&#x2191;" horiz-adv-x="802" 
d="M418 1464l205 -481v-33h-129v-907h-185v907h-129v33l205 481h33z" />
    <glyph glyph-name="arrowright" unicode="&#x2192;" horiz-adv-x="1779" 
d="M1087 938h33l482 -205v-33l-482 -204h-33v129h-907v184h907v129z" />
    <glyph glyph-name="arrowdown" unicode="&#x2193;" horiz-adv-x="802" 
d="M494 1413v-907h129v-33l-205 -481h-33l-205 481v33h129v907h185z" />
    <glyph glyph-name="arrowboth" unicode="&#x2194;" horiz-adv-x="1943" 
d="M1280 954h33l479 -206v-31l-479 -207h-33v127h-616v-127h-31l-481 207v31l481 206h31v-129h616v129z" />
    <glyph glyph-name="arrowupdn" unicode="&#x2195;" horiz-adv-x="755" 
d="M600 1059v-33h-129v-614h129v-33l-207 -479h-31l-206 479v33h127v614h-127v33l206 479h31z" />
    <glyph glyph-name="uni2196" unicode="&#x2196;" horiz-adv-x="1255" 
d="M528 940l641 -643l-131 -131l-643 641l-90 -90l-22 22l-195 486l21 22l487 -194l22 -23z" />
    <glyph glyph-name="uni2197" unicode="&#x2197;" horiz-adv-x="1212" 
d="M639 997l485 195l23 -23l-195 -485l-22 -22l-90 92l-643 -643l-131 131l643 643l-93 90z" />
    <glyph glyph-name="uni2198" unicode="&#x2198;" horiz-adv-x="1456" 
d="M1051 727l22 -22l195 -486l-23 -22l-485 194l-23 23l92 92l-643 641l131 131l644 -641z" />
    <glyph glyph-name="uni2199" unicode="&#x2199;" horiz-adv-x="1353" 
d="M1087 1221l132 -131l-641 -641l90 -93l-23 -22l-485 -195l-23 23l195 485l22 23l92 -90z" />
    <glyph glyph-name="partialdiff" unicode="&#x2202;" horiz-adv-x="1611" 
d="M733 1438q383 0 576.5 -183.5t193.5 -535.5q0 -331 -139 -508q-89 -113 -241.5 -171t-340.5 -58q-303 0 -489 139q-184 138 -184 371q0 230 172 350q174 121 448 121q207 0 349 -79.5t194 -207.5h18l-14 74l-39 59q-23 211 -157.5 321.5t-374.5 110.5q-311 0 -527 -137
v215q247 119 555 119zM788 160q189 0 314 90q123 88 123 242q0 143 -121 231t-326 88q-198 0 -314 -83.5t-116 -235.5q0 -150 118 -241t322 -91z" />
    <glyph glyph-name="emptyset" unicode="&#x2205;" horiz-adv-x="1560" 
d="M317 1012q182 170 463 170t463 -170t182 -434q0 -265 -182 -435q-180 -168 -463 -168t-463 168t-180 435q0 266 180 434zM780 1022q-205 0 -338 -127t-133 -317q0 -165 99 -279l645 647q-113 76 -273 76zM780 137q206 0 338 123q133 127 133 318q0 159 -92 274l-643 -645
q113 -70 264 -70z" />
    <glyph glyph-name="product" unicode="&#x220f;" horiz-adv-x="1798" 
d="M674 -401h-240v1611h-280v203h1491v-203h-273v-1611h-239v1611h-459v-1611z" />
    <glyph glyph-name="summation" unicode="&#x2211;" horiz-adv-x="1521" 
d="M1417 1210h-944l-102 19v-27l82 -51l538 -623l-538 -624l-82 -49v-29l102 20h944v-202h-1333v188l621 696l-621 699v186h1333v-203z" />
    <glyph glyph-name="minus" unicode="&#x2212;" horiz-adv-x="1400" 
d="M1221 489h-1041v166h1041v-166z" />
    <glyph glyph-name="radical" unicode="&#x221a;" horiz-adv-x="1615" 
d="M807 289l541 1349h241v-26l-649 -1612h-324l-368 848h-191v186h363l330 -745l12 -76h33z" />
    <glyph glyph-name="infinity" unicode="&#x221e;" horiz-adv-x="1966" 
d="M1466 975q168 0 279 -117q113 -113 113 -285q0 -170 -113 -286q-111 -114 -279 -117q-179 -3 -348 158l-133 135l-135 -135q-92 -86 -174 -123t-176 -35q-168 3 -281 119q-110 116 -110 284q0 172 110 285q114 117 281 117q103 0 190.5 -42t183.5 -138l109 -111l109 111
q97 97 183.5 138.5t190.5 41.5zM754 453l118 118l-122 121q-120 123 -240 123q-97 0 -163 -69.5t-66 -172.5q0 -102 66 -171.5t163 -71.5q65 -1 120 27t124 96zM1456 330q97 2 163.5 71.5t66.5 171.5q0 103 -66.5 172.5t-163.5 69.5q-125 0 -242 -123l-120 -119l123 -118
q71 -69 124 -97.5t115 -27.5z" />
    <glyph glyph-name="integral" unicode="&#x222b;" horiz-adv-x="905" 
d="M119 -422q-113 0 -234 31v188q95 -30 189 -30q109 0 159 53.5t50 169.5v1065q0 212 99.5 315t309.5 103q113 0 234 -31v-191q-90 33 -189 33q-109 0 -160 -54t-51 -169v-1065q0 -214 -98.5 -316t-308.5 -102z" />
    <glyph glyph-name="approxequal" unicode="&#x2248;" horiz-adv-x="1374" 
d="M918 674q-96 0 -250 45q-161 47 -254 47q-121 0 -234 -70v162q109 74 252 74q111 0 262 -45q154 -45 250 -45q155 0 250 65v-155q-116 -78 -276 -78zM918 248q-96 0 -250 45q-161 47 -254 47q-121 0 -234 -70v162q109 74 252 74q111 0 262 -45q154 -45 250 -45
q155 0 250 65v-155q-116 -78 -276 -78z" />
    <glyph glyph-name="notequal" unicode="&#x2260;" horiz-adv-x="1392" 
d="M1212 860v-164h-389l-86 -239h475v-164h-532l-88 -246h-164l88 246h-336v164h393l86 239h-479v164h537l86 242h166l-86 -242h329z" />
    <glyph glyph-name="lessequal" unicode="&#x2264;" horiz-adv-x="1376" 
d="M1194 393h-37l-977 215v221l977 218h37v-156l-702 -150l-99 -12v-22l99 -9l702 -153v-152zM1194 111h-1014v145h1014v-145z" />
    <glyph glyph-name="greaterequal" unicode="&#x2265;" horiz-adv-x="1376" 
d="M217 393h-37v152l703 153l98 9v22l-98 12l-703 150v156h37l977 -218v-221zM1194 111h-1014v145h1014v-145z" />
    <glyph glyph-name="lozenge" unicode="&#x25ca;" horiz-adv-x="1689" 
d="M723 1413h240l636 -692v-29l-636 -692h-240l-633 692v29zM858 190l19 43l432 476l-432 471l-19 45h-33l-20 -45l-436 -471l436 -476l20 -43h33z" />
    <glyph glyph-name="NULL" 
 />
    <glyph glyph-name="CR.001" horiz-adv-x="681" 
 />
    <glyph glyph-name="I.ss01" horiz-adv-x="1310" 
d="M1217 0h-1123v195h434v1024h-434v194h1123v-194h-435v-1024h435v-195z" />
    <glyph glyph-name="Iacute.ss01" horiz-adv-x="1310" 
d="M647 1538h-178v27l293 288h242v-24zM1217 0h-1123v195h434v1024h-434v194h1123v-194h-435v-1024h435v-195z" />
    <glyph glyph-name="Icircumflex.ss01" horiz-adv-x="1310" 
d="M463 1540h-162v21l279 301h147l279 -301v-21h-166l-160 168l-16 29h-25l-16 -29zM1217 0h-1123v195h434v1024h-434v194h1123v-194h-435v-1024h435v-195z" />
    <glyph glyph-name="Idieresis.ss01" horiz-adv-x="1310" 
d="M547 1540h-170v252h170v-252zM926 1540h-170v252h170v-252zM1217 0h-1123v195h434v1024h-434v194h1123v-194h-435v-1024h435v-195z" />
    <glyph glyph-name="Igrave.ss01" horiz-adv-x="1310" 
d="M786 1540h-180l-350 289v24h238l292 -290v-23zM1217 0h-1123v195h434v1024h-434v194h1123v-194h-435v-1024h435v-195z" />
    <glyph glyph-name="Iogonek.ss01" horiz-adv-x="1314" 
d="M1223 1413v-203h-432v-1007h432v-203h-406q-94 -19 -155.5 -66.5t-61.5 -103.5q0 -37 28.5 -58.5t73.5 -21.5q62 0 115 27v-129q-66 -29 -155 -29q-112 0 -179 44.5t-67 127.5q0 76 58.5 135.5t154.5 89.5l-4 37l-164 -53h-369v203h434v1007h-434v203h1131z" />
    <glyph glyph-name="i.loclTRK" horiz-adv-x="546" 
d="M395 1157h-243v291h243v-291zM393 0h-239v1034h239v-1034z" />
    <glyph glyph-name="zero.lf" horiz-adv-x="1779" 
d="M137 705q0 333 205 532q207 201 549 201t547 -199q204 -198 204 -534q0 -333 -204 -531q-202 -199 -547 -199q-344 0 -549 199t-205 531zM893 182q230 0 359.5 141.5t129.5 383.5q0 243 -130.5 383.5t-360.5 140.5q-231 0 -363 -144q-131 -143 -131 -382t133 -381
q136 -142 363 -142z" />
    <glyph glyph-name="one.lf" horiz-adv-x="952" 
d="M455 1313l14 100h221v-1413h-256v1001h-336v195h213q72 0 102.5 25.5t41.5 91.5z" />
    <glyph glyph-name="two.lf" horiz-adv-x="1542" 
d="M1417 0h-1304v170l798 532q64 44 93.5 67t64.5 58q68 71 68 168q0 113 -95.5 186.5t-248.5 73.5q-365 0 -424 -280h-271q38 226 217.5 344.5t485.5 118.5q269 0 434 -121q164 -120 164 -309q0 -131 -69 -224t-224 -190l-518 -348l-88 -41v-27l108 21h809v-199z" />
    <glyph glyph-name="three.lf" horiz-adv-x="1611" 
d="M1098 780v-26q189 -25 291 -116.5t102 -234.5q0 -194 -178 -311q-177 -115 -492 -115q-297 0 -479.5 109t-226.5 315h280q36 -119 146.5 -180t279.5 -61q182 0 284.5 70.5t102.5 187.5q0 219 -381 219h-235v180h237q172 0 261.5 57.5t89.5 157.5q0 103 -97 163t-268 60
q-331 0 -407 -225h-273q120 408 688 408q289 0 456 -102.5t167 -276.5q0 -110 -69.5 -187t-188.5 -100z" />
    <glyph glyph-name="four.lf" horiz-adv-x="1538" 
d="M1276 502h180v-195h-180v-307h-250v307h-956v178l827 928h272v-35l-753 -825l-74 -47v-23l104 19h580v286l84 95h166v-381z" />
    <glyph glyph-name="five.lf" horiz-adv-x="1599" 
d="M479 844h363q631 0 631 -412q0 -209 -181 -332q-178 -123 -448 -123q-611 0 -703 398h260q92 -225 430 -225q167 0 273 75q110 76 110 205q0 124 -100 192t-293 68h-616v37l59 686h1135v-184h-922l-31 -336l-59 -43v-25z" />
    <glyph glyph-name="six.lf" horiz-adv-x="1683" 
d="M961 895q265 0 430 -109q165 -107 165 -321q0 -224 -184 -356q-187 -134 -495 -134q-190 0 -345 58.5t-241 171.5q-127 165 -127 469q0 362 187 560t544 198q254 0 424 -103t221 -289h-266q-35 98 -135.5 154.5t-241.5 56.5q-452 0 -467 -475l-39 -69l-14 -74h20
q56 117 205 189.5t359 72.5zM877 154q205 0 323.5 82.5t118.5 220.5q0 128 -115.5 198t-314.5 70q-210 0 -328.5 -76.5t-118.5 -210.5q0 -128 123 -207q124 -77 312 -77z" />
    <glyph glyph-name="seven.lf" horiz-adv-x="1386" 
d="M469 0h-268v39l811 1118l69 47v27l-100 -21h-881v203h1254v-172z" />
    <glyph glyph-name="eight.lf" horiz-adv-x="1638" 
d="M1100 786v-28q198 -31 302.5 -131t104.5 -240q0 -189 -179.5 -300.5t-512.5 -111.5q-325 0 -504.5 108.5t-179.5 291.5q0 114 76 200.5t221 122.5l94 -10v29q-163 30 -254.5 118.5t-91.5 211.5q0 163 160 278q162 113 485 113q296 0 465.5 -102.5t169.5 -270.5
q0 -103 -71.5 -180.5t-194.5 -106.5zM424 1036q0 -96 101 -157.5t286 -61.5t289 62t104 157q0 101 -103 163.5t-288 62.5q-182 0 -285.5 -62.5t-103.5 -163.5zM815 156q197 0 309.5 66t112.5 181q0 117 -112 188t-310 71q-199 0 -311.5 -70.5t-112.5 -188.5q0 -115 113 -181
t311 -66z" />
    <glyph glyph-name="nine.lf" horiz-adv-x="1683" 
d="M1391 1214q129 -164 129 -469q0 -362 -187.5 -559.5t-544.5 -197.5q-256 0 -425 102.5t-220 288.5h265q37 -99 137 -155t241 -56q453 0 465 475l41 70l15 73h-21q-56 -117 -204.5 -189.5t-358.5 -72.5q-266 0 -434 109q-164 108 -164 321q0 225 184 357q189 133 498 133
q188 0 343 -59.5t241 -170.5zM795 694q210 0 327 76.5t117 210.5q0 129 -123 205q-121 80 -309 80q-205 0 -323.5 -82.5t-118.5 -220.5q0 -128 116 -198.5t314 -70.5z" />
    <glyph glyph-name="zero.dnom" horiz-adv-x="1339" 
d="M672 -18q-256 0 -410 145q-151 148 -151 391q0 249 153 393q154 148 408 148t405 -148q152 -146 152 -393q0 -242 -152 -391q-151 -145 -405 -145zM672 147q160 0 251 100t91 273q0 171 -91.5 273t-250.5 102t-251.5 -102t-92.5 -273q0 -172 93 -272.5t251 -100.5z" />
    <glyph glyph-name="one.dnom" horiz-adv-x="686" 
d="M332 965l12 71h193v-1036h-222v711h-256v168h160q55 0 78.5 18t34.5 68z" />
    <glyph glyph-name="two.dnom" horiz-adv-x="1239" 
d="M1112 0h-979l2 141l582 373q58 37 86 59q80 64 80 152q0 79 -68 130.5t-176 51.5q-248 0 -289 -200h-227q29 172 163.5 262t362.5 90q208 0 330 -88q123 -89 123 -223q0 -97 -50.5 -167t-160.5 -139l-354 -239l-70 -33v-25l88 21h557v-166z" />
    <glyph glyph-name="three.dnom" horiz-adv-x="1236" 
d="M838 580v-23q139 -19 213.5 -86.5t74.5 -173.5q0 -144 -132.5 -229.5t-364.5 -85.5q-223 0 -357 81t-166 238h226q52 -172 297 -172q126 0 198 48.5t72 129.5q0 156 -266 156h-170v145h172q119 0 180.5 40.5t61.5 109.5q0 70 -67.5 112.5t-184.5 42.5q-231 0 -287 -157
h-217q85 303 510 303q216 0 339.5 -75t123.5 -206q0 -79 -49 -133.5t-132 -71.5z" />
    <glyph glyph-name="four.dnom" horiz-adv-x="1159" 
d="M989 379h133v-162h-133v-217h-209v217h-721v145l617 674h227v-30l-557 -586l-61 -37v-21l86 17h409v192l72 84h137v-276z" />
    <glyph glyph-name="five.dnom" horiz-adv-x="1220" 
d="M379 623h254q471 0 471 -304q0 -159 -135 -247q-134 -90 -346 -90q-215 0 -344.5 75t-161.5 222h209q62 -160 297 -160q119 0 194.5 54t75.5 144q0 86 -69.5 134.5t-200.5 48.5h-461v30l43 506h844v-147h-674l-21 -227l-47 -35v-21z" />
    <glyph glyph-name="six.dnom" horiz-adv-x="1263" 
d="M707 664q198 0 323 -82q127 -80 127 -236q0 -163 -141 -262q-140 -98 -369 -98q-303 0 -438 170q-98 125 -98 346q0 267 140.5 412t407.5 145q195 0 324.5 -77t167.5 -218h-211q-56 151 -281 151q-319 0 -331 -331l-33 -52l-12 -55h16q43 85 149 136t259 51zM647 125
q148 0 233 58.5t85 156.5q0 92 -84 142t-226 50q-151 0 -235 -54t-84 -148q0 -92 87 -148.5t224 -56.5z" />
    <glyph glyph-name="seven.dnom" horiz-adv-x="1056" 
d="M354 0h-215v33l570 801l57 36v23l-80 -19h-612v162h909v-135z" />
    <glyph glyph-name="eight.dnom" horiz-adv-x="1234" 
d="M827 584v-25q144 -23 220.5 -96t76.5 -176q0 -140 -132 -222.5t-378 -82.5q-241 0 -372 78.5t-131 215.5q0 82 51 144t151 90l80 -6v20q-117 23 -182.5 88t-65.5 156q0 129 121 210t350 81q220 0 344.5 -75t124.5 -200q0 -74 -49.5 -131.5t-130.5 -77.5zM342 764
q0 -69 70.5 -111.5t199.5 -42.5q160 -5 233 71q52 56 29 122q-25 69 -119 100q-63 20 -143 17q-127 0 -198.5 -43.5t-71.5 -112.5zM905 297q0 83 -77.5 132.5t-215.5 49.5t-215.5 -49.5t-77.5 -132.5q0 -80 78.5 -126t214.5 -46t214.5 46t78.5 126z" />
    <glyph glyph-name="nine.dnom" horiz-adv-x="1263" 
d="M1055 889q98 -125 98 -346q0 -266 -140.5 -411.5t-408.5 -145.5q-195 0 -324 77t-167 218h211q56 -152 280 -152q320 0 332 332l33 51l12 55h-16q-43 -85 -148 -135.5t-260 -50.5q-197 0 -324 80q-127 83 -127 237q0 163 142 263q140 98 368 98q304 0 439 -170zM608 512
q151 0 235.5 54.5t84.5 148.5q0 92 -87.5 148.5t-224.5 56.5q-148 0 -232.5 -58.5t-84.5 -156.5q0 -92 83.5 -142.5t225.5 -50.5z" />
    <glyph glyph-name="zero.numr" horiz-adv-x="1339" 
d="M672 360q-255 0 -410 146q-151 148 -151 391q0 249 153 393q154 148 408 148t405 -148q152 -146 152 -393q0 -242 -152 -391q-152 -146 -405 -146zM672 526q160 0 251 100t91 273q0 171 -91.5 273t-250.5 102t-251.5 -102t-92.5 -273q0 -172 93 -272.5t251 -100.5z" />
    <glyph glyph-name="one.numr" horiz-adv-x="686" 
d="M332 1343l12 72h193v-1036h-222v711h-256v167h160q55 0 78.5 18t34.5 68z" />
    <glyph glyph-name="two.numr" horiz-adv-x="1239" 
d="M1112 379h-979l2 141l582 373q58 37 86 59q80 64 80 152q0 79 -68 130.5t-176 51.5q-248 0 -289 -201h-227q29 172 163.5 262.5t362.5 90.5q208 0 330 -88q123 -88 123 -224q0 -97 -50.5 -166.5t-160.5 -138.5l-354 -239l-70 -33v-25l88 21h557v-166z" />
    <glyph glyph-name="three.numr" horiz-adv-x="1236" 
d="M838 958v-22q139 -19 213.5 -86.5t74.5 -173.5q0 -144 -132.5 -230t-364.5 -86q-223 0 -357 81.5t-166 238.5h226q52 -172 297 -172q126 0 198 48.5t72 129.5q0 156 -266 156h-170v145h172q119 0 180.5 40.5t61.5 109.5q0 70 -67.5 112.5t-184.5 42.5q-231 0 -287 -157
h-217q85 303 510 303q216 0 339.5 -75t123.5 -206q0 -79 -49 -133.5t-132 -71.5z" />
    <glyph glyph-name="four.numr" horiz-adv-x="1159" 
d="M989 758h133v-162h-133v-217h-209v217h-721v145l617 674h227v-31l-557 -585l-61 -37v-21l86 17h409v192l72 84h137v-276z" />
    <glyph glyph-name="five.numr" horiz-adv-x="1220" 
d="M379 1001h254q471 0 471 -303q0 -158 -135 -247q-136 -91 -346 -91q-215 0 -344.5 75t-161.5 222h209q62 -159 297 -159q119 0 194.5 54t75.5 144q0 86 -69.5 134.5t-200.5 48.5h-461v30l43 506h844v-147h-674l-21 -228l-47 -34v-21z" />
    <glyph glyph-name="six.numr" horiz-adv-x="1263" 
d="M707 1042q199 0 323 -81q127 -80 127 -236q0 -163 -141 -262q-140 -98 -369 -98q-303 0 -438 170q-98 125 -98 346q0 267 140.5 412t407.5 145q195 0 324.5 -77t167.5 -218h-211q-56 151 -281 151q-319 0 -331 -331l-33 -52l-12 -55h16q43 85 149 135.5t259 50.5z
M647 504q148 0 233 58.5t85 156.5q0 92 -84 142t-226 50q-151 0 -235 -54t-84 -148q0 -92 87 -148.5t224 -56.5z" />
    <glyph glyph-name="seven.numr" horiz-adv-x="1056" 
d="M354 379h-215v33l570 800l57 37v23l-80 -19h-612v162h909v-135z" />
    <glyph glyph-name="eight.numr" horiz-adv-x="1234" 
d="M827 963v-25q144 -23 220.5 -96t76.5 -176q0 -140 -132 -223t-378 -83q-241 0 -372 79t-131 216q0 82 51 144t151 90l80 -6v20q-117 23 -182.5 88t-65.5 156q0 129 121 210t350 81q220 0 344.5 -75t124.5 -200q0 -74 -49.5 -131.5t-130.5 -77.5zM342 1143
q0 -69 70.5 -111.5t199.5 -42.5q159 -5 232 70q53 55 30 121q-24 70 -118 101q-62 20 -144 17q-127 0 -198.5 -43t-71.5 -112zM905 676q0 83 -77.5 132.5t-215.5 49.5t-215.5 -49.5t-77.5 -132.5q0 -80 78.5 -126t214.5 -46t214.5 46t78.5 126z" />
    <glyph glyph-name="nine.numr" horiz-adv-x="1263" 
d="M1055 1268q98 -125 98 -346q0 -266 -140.5 -411.5t-408.5 -145.5q-196 0 -324.5 76.5t-166.5 217.5h211q56 -151 280 -151q320 0 332 332l33 51l12 55h-16q-43 -85 -148 -135.5t-260 -50.5q-197 0 -324 80q-127 83 -127 237q0 162 142 262q141 99 368 99q304 0 439 -170z
M608 891q151 0 235.5 54.5t84.5 148.5q0 92 -87 148t-225 56q-148 0 -232.5 -58.5t-84.5 -156.5q0 -92 83.5 -142t225.5 -50z" />
    <glyph glyph-name="colon.calt" horiz-adv-x="600" 
d="M424 881h-248v284h250zM424 217h-248v285h250z" />
    <glyph glyph-name="colon.tf.calt" horiz-adv-x="860" 
d="M553 881h-248v284h250zM553 219h-248v283h250z" />
    <glyph glyph-name="exclamdown.case" horiz-adv-x="604" 
d="M180 1413h248v-285h-250zM225 952h146l43 -372l2 -580h-234v580z" />
    <glyph glyph-name="questiondown.case" horiz-adv-x="1546" 
d="M633 1413h248v-285h-250zM649 969h213q0 -143 -45 -211q-44 -71 -166 -135l-98 -48q-93 -45 -135.5 -92t-42.5 -108q0 -100 99.5 -161.5t268.5 -61.5q335 0 408 237h272q-114 -414 -690 -414q-283 0 -454 103q-168 104 -168 280q0 104 64 179t208 149l113 55
q88 43 120.5 91.5t32.5 136.5z" />
    <glyph glyph-name="bullet.case" horiz-adv-x="733" 
d="M367 928q100 0 162 -63t63 -167q0 -103 -62 -168q-61 -61 -163 -61q-103 0 -164 61q-62 65 -62 168q0 104 61.5 167t164.5 63z" />
    <glyph glyph-name="period.tf" horiz-adv-x="860" 
d="M547 0h-248v285h250z" />
    <glyph glyph-name="comma.tf" horiz-adv-x="741" 
d="M254 0v285h250v-213q0 -108 -53.5 -201.5t-149.5 -146.5h-133v32q151 93 192 244h-106z" />
    <glyph glyph-name="colon.tf" horiz-adv-x="860" 
d="M547 664h-248v284h250zM547 0h-248v285h250z" />
    <glyph glyph-name="parenleft.case" horiz-adv-x="806" 
d="M768 -25v-147q-312 0 -467.5 227t-155.5 647q0 421 155.5 649t467.5 228v-147q-426 -9 -426 -730q0 -718 426 -727z" />
    <glyph glyph-name="parenright.case" horiz-adv-x="806" 
d="M39 1427v148q312 0 467.5 -227t155.5 -648t-155.5 -648.5t-467.5 -227.5v147q426 9 426 729q0 718 -426 727z" />
    <glyph glyph-name="braceleft.case" horiz-adv-x="761" 
d="M373 711v-19q106 -21 106 -145v-504q0 -68 64 -68h104v-149h-170q-100 0 -143 44t-43 148v514q0 48 -19.5 66t-78.5 18h-89v170h89q59 0 78.5 17t19.5 67v514q0 104 43 148.5t143 44.5h170v-150h-104q-64 0 -64 -67v-504q0 -124 -106 -145z" />
    <glyph glyph-name="braceright.case" horiz-adv-x="761" 
d="M567 786h88v-170h-88q-57 0 -77.5 -18t-20.5 -66v-514q0 -106 -41.5 -149t-144.5 -43h-168v149h102q64 0 64 68v504q0 124 108 145v19q-108 21 -108 145v504q0 67 -64 67h-102v150h168q100 0 143 -44.5t43 -148.5v-514q0 -50 19.5 -67t78.5 -17z" />
    <glyph glyph-name="bracketleft.case" horiz-adv-x="815" 
d="M754 1577v-147h-373v-1457h373v-147h-559v1751h559z" />
    <glyph glyph-name="bracketright.case" horiz-adv-x="815" 
d="M61 1577h560v-1751h-560v147h373v1457h-373v147z" />
    <glyph glyph-name="hyphen.case" horiz-adv-x="1032" 
d="M856 606h-680v195h680v-195z" />
    <glyph glyph-name="uni00AD.case" horiz-adv-x="1032" 
d="M856 606h-680v195h680v-195z" />
    <glyph glyph-name="endash.case" horiz-adv-x="1277" 
d="M1102 606h-926v195h926v-195z" />
    <glyph glyph-name="emdash.case" horiz-adv-x="1701" 
d="M1524 606h-1348v195h1348v-195z" />
    <glyph glyph-name="guillemotleft.case" horiz-adv-x="1339" 
d="M657 242h-34l-564 395v141l564 393h34v-172l-360 -264l-53 -22v-13l53 -18l360 -268v-172zM1204 242h-35l-563 395v141l563 393h35v-172l-360 -264l-53 -22v-13l53 -18l360 -268v-172z" />
    <glyph glyph-name="guillemotright.case" horiz-adv-x="1339" 
d="M135 1171h35l563 -395v-141l-563 -393h-35v172l361 264l53 22v13l-53 18l-361 268v172zM682 1171h35l563 -395v-141l-563 -393h-35v172l360 264l54 22v13l-54 18l-360 268v172z" />
    <glyph glyph-name="guilsinglleft.case" horiz-adv-x="790" 
d="M657 244h-34l-564 397v141l564 394h34v-175l-360 -264l-53 -20v-12l53 -21l360 -266v-174z" />
    <glyph glyph-name="guilsinglright.case" horiz-adv-x="790" 
d="M168 238h-33v174l359 264l53 20v13l-53 20l-359 266v174h33l563 -397v-141z" />
    <glyph glyph-name="cent.tf" horiz-adv-x="1679" 
d="M772 145q129 0 223.5 56t132.5 155h244q-30 -155 -162.5 -255.5t-341.5 -120.5l6 -207h-192l6 207q-251 21 -395 165q-143 143 -143 365q0 221 143 364q145 145 395 166l-6 207h192l-6 -207q205 -19 339 -118.5t165 -257.5h-244q-39 101 -131.5 158t-224.5 57
q-176 0 -278.5 -101t-102.5 -268q0 -165 104 -265t277 -100z" />
    <glyph glyph-name="currency.tf" horiz-adv-x="1679" 
d="M1116 446l154 -151l-105 -105l-151 152q-104 -70 -238 -70q-132 0 -241 74l-156 -156l-100 105l155 156q-67 101 -67 233q0 136 69 236l-151 155l100 103l154 -154q104 70 237 70q131 0 234 -68l155 156l103 -103l-156 -155q72 -107 72 -240q0 -135 -68 -238zM1018 684
q0 111 -66 179.5t-176 68.5q-108 0 -174.5 -68.5t-66.5 -179.5q0 -113 66 -181.5t175 -68.5t175.5 69t66.5 181z" />
    <glyph glyph-name="dollar.tf" horiz-adv-x="1679" 
d="M1524 449q0 -174 -152 -279.5t-432 -124.5l6 -258h-190l4 256q-531 18 -604 377h262q77 -215 426 -215q190 0 299.5 56t109.5 155q0 80 -68.5 125t-221.5 65l-371 51q-406 53 -406 326q0 166 150.5 267.5t423.5 113.5l-6 266h192l-6 -268q233 -17 372 -109t171 -252h-258
q-71 203 -402 203q-172 0 -273 -52t-101 -140q0 -126 231 -156l369 -51q245 -32 360 -119t115 -237z" />
    <glyph glyph-name="Euro.tf" horiz-adv-x="1728" 
d="M924 -23q-279 0 -469 131.5t-254 360.5h-181v156h156q-4 66 -4 77t4 89h-156v153h187q68 231 256 362.5t461 131.5q282 0 471 -133q187 -132 237 -357h-221q-44 147 -175.5 233.5t-313.5 86.5q-152 0 -271 -73.5t-176 -193.5l-74 -51v-26l105 20h620v-153h-729
q-12 -89 0 -166h729v-156h-620l-105 20v-26l74 -51q55 -119 176.5 -192t274.5 -73q179 0 309.5 86t175.5 230h221q-50 -224 -236.5 -355t-471.5 -131z" />
    <glyph glyph-name="florin.tf" horiz-adv-x="1679" 
d="M1231 1284q-134 0 -198 -55t-64 -168v-236h473v-159h-473v-271q0 -210 -112.5 -315t-350.5 -105q-154 0 -275 33v189q118 -31 236 -31q258 0 258 223v277h-471v159h471v230q0 210 113 314t352 104q140 0 276 -31v-191q-112 33 -235 33z" />
    <glyph glyph-name="sterling.tf" horiz-adv-x="1679" 
d="M561 199v-27l115 23h827v-195h-1368v166l137 18q187 27 187 187q0 92 -41 213h-283v159h223q-39 110 -39 222q0 208 156 340q157 133 438 133q249 0 403.5 -120.5t186.5 -342.5h-272q-23 139 -107.5 209.5t-220.5 70.5q-148 0 -234.5 -84.5t-86.5 -222.5q0 -92 43 -205
h538v-159h-475q33 -98 33 -189q0 -109 -78 -166z" />
    <glyph glyph-name="yen.tf" horiz-adv-x="1679" 
d="M967 0h-254v246h-568v147h496l92 -20v28l-51 43l-4 125h-533v158h367l106 -25v29l-75 49l-459 600v33h260l455 -606l26 -70h35l29 70l452 606h254v-31l-456 -602l-76 -49v-29l106 25h357v-158h-522l-5 -125l-51 -43v-28l92 20h486v-147h-559v-246z" />
    <glyph glyph-name="caroncomb.alt" 
d="M-285 1075h-145v25l119 375h200v-25z" />
    <glyph glyph-name="uni0308.narrow" 
d="M-444 1161h-154v252h154v-252zM-156 1161h-153v252h153v-252z" />
    <glyph glyph-name="uni0302.narrow" 
d="M-588 1159h-162v23l238 301h133l238 -301v-23h-168l-111 156l-14 28h-27l-16 -28z" />
    </font>
</defs>
</svg>
